<mxfile host="Electron" agent="Mozilla/5.0 (Windows NT 10.0; Win64; x64) AppleWebKit/537.36 (KHTML, like Gecko) draw.io/26.0.9 Chrome/128.0.6613.186 Electron/32.2.5 Safari/537.36" version="26.0.9">
  <diagram id="C5RBs43oDa-KdzZeNtuy" name="Page-1">
    <mxGraphModel dx="4320" dy="2580" grid="1" gridSize="10" guides="1" tooltips="1" connect="1" arrows="1" fold="1" page="1" pageScale="1" pageWidth="827" pageHeight="1169" math="0" shadow="0">
      <root>
        <mxCell id="WIyWlLk6GJQsqaUBKTNV-0" />
        <mxCell id="WIyWlLk6GJQsqaUBKTNV-1" parent="WIyWlLk6GJQsqaUBKTNV-0" />
        <mxCell id="Pu-JDG_D6I3IjvPYyL8J-0" value="CurdOperation Interface" style="whiteSpace=wrap;strokeWidth=2;" vertex="1" parent="WIyWlLk6GJQsqaUBKTNV-1">
          <mxGeometry x="20" y="2107" width="235" height="54" as="geometry" />
        </mxCell>
        <mxCell id="Pu-JDG_D6I3IjvPYyL8J-1" value="Auth Interface" style="whiteSpace=wrap;strokeWidth=2;" vertex="1" parent="WIyWlLk6GJQsqaUBKTNV-1">
          <mxGeometry x="348" y="124" width="164" height="54" as="geometry" />
        </mxCell>
        <mxCell id="Pu-JDG_D6I3IjvPYyL8J-2" value="Export Interface" style="whiteSpace=wrap;strokeWidth=2;" vertex="1" parent="WIyWlLk6GJQsqaUBKTNV-1">
          <mxGeometry x="49" y="4128" width="177" height="54" as="geometry" />
        </mxCell>
        <mxCell id="Pu-JDG_D6I3IjvPYyL8J-3" value="_CandidateController" style="whiteSpace=wrap;strokeWidth=2;" vertex="1" parent="WIyWlLk6GJQsqaUBKTNV-1">
          <mxGeometry x="645" y="3442" width="213" height="54" as="geometry" />
        </mxCell>
        <mxCell id="Pu-JDG_D6I3IjvPYyL8J-4" value="_AddCandidateBuilder" style="whiteSpace=wrap;strokeWidth=2;" vertex="1" parent="WIyWlLk6GJQsqaUBKTNV-1">
          <mxGeometry x="1003" y="3660" width="219" height="54" as="geometry" />
        </mxCell>
        <mxCell id="Pu-JDG_D6I3IjvPYyL8J-5" value="_UpdateCandidateBuilder" style="whiteSpace=wrap;strokeWidth=2;" vertex="1" parent="WIyWlLk6GJQsqaUBKTNV-1">
          <mxGeometry x="991" y="3556" width="244" height="54" as="geometry" />
        </mxCell>
        <mxCell id="Pu-JDG_D6I3IjvPYyL8J-6" value="_ReadCandidateBuilder" style="whiteSpace=wrap;strokeWidth=2;" vertex="1" parent="WIyWlLk6GJQsqaUBKTNV-1">
          <mxGeometry x="999" y="3338" width="227" height="54" as="geometry" />
        </mxCell>
        <mxCell id="Pu-JDG_D6I3IjvPYyL8J-7" value="_ReadAllCandidateBuilder" style="whiteSpace=wrap;strokeWidth=2;" vertex="1" parent="WIyWlLk6GJQsqaUBKTNV-1">
          <mxGeometry x="990" y="3452" width="246" height="54" as="geometry" />
        </mxCell>
        <mxCell id="Pu-JDG_D6I3IjvPYyL8J-8" value="_DeleteCandidateBuilder" style="whiteSpace=wrap;strokeWidth=2;" vertex="1" parent="WIyWlLk6GJQsqaUBKTNV-1">
          <mxGeometry x="993" y="3234" width="239" height="54" as="geometry" />
        </mxCell>
        <mxCell id="Pu-JDG_D6I3IjvPYyL8J-9" value="_CandidateSkillsController" style="whiteSpace=wrap;strokeWidth=2;" vertex="1" parent="WIyWlLk6GJQsqaUBKTNV-1">
          <mxGeometry x="305" y="2861" width="250" height="54" as="geometry" />
        </mxCell>
        <mxCell id="Pu-JDG_D6I3IjvPYyL8J-10" value="_AddCandidateSkillsBuilder" style="whiteSpace=wrap;strokeWidth=2;" vertex="1" parent="WIyWlLk6GJQsqaUBKTNV-1">
          <mxGeometry x="624" y="3089" width="255" height="54" as="geometry" />
        </mxCell>
        <mxCell id="Pu-JDG_D6I3IjvPYyL8J-11" value="_UpdateCandidateSkillsBuilder" style="whiteSpace=wrap;strokeWidth=2;" vertex="1" parent="WIyWlLk6GJQsqaUBKTNV-1">
          <mxGeometry x="612" y="2985" width="280" height="54" as="geometry" />
        </mxCell>
        <mxCell id="Pu-JDG_D6I3IjvPYyL8J-12" value="_ReadCandidateSkillsBuilder" style="whiteSpace=wrap;strokeWidth=2;" vertex="1" parent="WIyWlLk6GJQsqaUBKTNV-1">
          <mxGeometry x="620" y="2830" width="263" height="54" as="geometry" />
        </mxCell>
        <mxCell id="Pu-JDG_D6I3IjvPYyL8J-13" value="_ReadAllCandidateSkillsBuilder" style="whiteSpace=wrap;strokeWidth=2;" vertex="1" parent="WIyWlLk6GJQsqaUBKTNV-1">
          <mxGeometry x="611" y="2613" width="282" height="54" as="geometry" />
        </mxCell>
        <mxCell id="Pu-JDG_D6I3IjvPYyL8J-14" value="_DeleteCandidateSkillsBuilder" style="whiteSpace=wrap;strokeWidth=2;" vertex="1" parent="WIyWlLk6GJQsqaUBKTNV-1">
          <mxGeometry x="614" y="2509" width="275" height="54" as="geometry" />
        </mxCell>
        <mxCell id="Pu-JDG_D6I3IjvPYyL8J-15" value="_CandidateEducationController" style="whiteSpace=wrap;strokeWidth=2;" vertex="1" parent="WIyWlLk6GJQsqaUBKTNV-1">
          <mxGeometry x="610" y="2208" width="284" height="54" as="geometry" />
        </mxCell>
        <mxCell id="Pu-JDG_D6I3IjvPYyL8J-16" value="_AddCandidateEducationBuilder" style="whiteSpace=wrap;strokeWidth=2;" vertex="1" parent="WIyWlLk6GJQsqaUBKTNV-1">
          <mxGeometry x="967" y="2426" width="290" height="54" as="geometry" />
        </mxCell>
        <mxCell id="Pu-JDG_D6I3IjvPYyL8J-17" value="_UpdateCandidateEducationBuilder" style="whiteSpace=wrap;strokeWidth=2;" vertex="1" parent="WIyWlLk6GJQsqaUBKTNV-1">
          <mxGeometry x="955" y="2322" width="314" height="54" as="geometry" />
        </mxCell>
        <mxCell id="Pu-JDG_D6I3IjvPYyL8J-18" value="_ReadCandidateEducationBuilder" style="whiteSpace=wrap;strokeWidth=2;" vertex="1" parent="WIyWlLk6GJQsqaUBKTNV-1">
          <mxGeometry x="964" y="2208" width="297" height="54" as="geometry" />
        </mxCell>
        <mxCell id="Pu-JDG_D6I3IjvPYyL8J-19" value="_ReadAllCandidateEducationBuilder" style="whiteSpace=wrap;strokeWidth=2;" vertex="1" parent="WIyWlLk6GJQsqaUBKTNV-1">
          <mxGeometry x="954" y="2104" width="316" height="54" as="geometry" />
        </mxCell>
        <mxCell id="Pu-JDG_D6I3IjvPYyL8J-20" value="_DeleteCandidateEducationBuilder" style="whiteSpace=wrap;strokeWidth=2;" vertex="1" parent="WIyWlLk6GJQsqaUBKTNV-1">
          <mxGeometry x="958" y="2000" width="310" height="54" as="geometry" />
        </mxCell>
        <mxCell id="Pu-JDG_D6I3IjvPYyL8J-21" value="_CandidateExperienceController" style="whiteSpace=wrap;strokeWidth=2;" vertex="1" parent="WIyWlLk6GJQsqaUBKTNV-1">
          <mxGeometry x="606" y="1668" width="293" height="54" as="geometry" />
        </mxCell>
        <mxCell id="Pu-JDG_D6I3IjvPYyL8J-22" value="_AddCandidateExperienceBuilder" style="whiteSpace=wrap;strokeWidth=2;" vertex="1" parent="WIyWlLk6GJQsqaUBKTNV-1">
          <mxGeometry x="963" y="1896" width="298" height="54" as="geometry" />
        </mxCell>
        <mxCell id="Pu-JDG_D6I3IjvPYyL8J-23" value="_UpdateCandidateExperienceBuilder" style="whiteSpace=wrap;strokeWidth=2;" vertex="1" parent="WIyWlLk6GJQsqaUBKTNV-1">
          <mxGeometry x="951" y="1782" width="323" height="54" as="geometry" />
        </mxCell>
        <mxCell id="Pu-JDG_D6I3IjvPYyL8J-24" value="_ReadCandidateExperienceBuilder" style="whiteSpace=wrap;strokeWidth=2;" vertex="1" parent="WIyWlLk6GJQsqaUBKTNV-1">
          <mxGeometry x="960" y="1648" width="306" height="54" as="geometry" />
        </mxCell>
        <mxCell id="Pu-JDG_D6I3IjvPYyL8J-25" value="_ReadAllCandidateExperienceBuilder" style="whiteSpace=wrap;strokeWidth=2;" vertex="1" parent="WIyWlLk6GJQsqaUBKTNV-1">
          <mxGeometry x="950" y="1544" width="325" height="54" as="geometry" />
        </mxCell>
        <mxCell id="Pu-JDG_D6I3IjvPYyL8J-26" value="_DeleteCandidateExperienceBuilder" style="whiteSpace=wrap;strokeWidth=2;" vertex="1" parent="WIyWlLk6GJQsqaUBKTNV-1">
          <mxGeometry x="953" y="1440" width="318" height="54" as="geometry" />
        </mxCell>
        <mxCell id="Pu-JDG_D6I3IjvPYyL8J-27" value="_CandidateApplicationController" style="whiteSpace=wrap;strokeWidth=2;" vertex="1" parent="WIyWlLk6GJQsqaUBKTNV-1">
          <mxGeometry x="605" y="1078" width="295" height="54" as="geometry" />
        </mxCell>
        <mxCell id="Pu-JDG_D6I3IjvPYyL8J-28" value="_AddCandidateApplicationBuilder" style="whiteSpace=wrap;strokeWidth=2;" vertex="1" parent="WIyWlLk6GJQsqaUBKTNV-1">
          <mxGeometry x="962" y="1296" width="300" height="54" as="geometry" />
        </mxCell>
        <mxCell id="Pu-JDG_D6I3IjvPYyL8J-29" value="_UpdateCandidateApplicationBuilder" style="whiteSpace=wrap;strokeWidth=2;" vertex="1" parent="WIyWlLk6GJQsqaUBKTNV-1">
          <mxGeometry x="950" y="1192" width="325" height="54" as="geometry" />
        </mxCell>
        <mxCell id="Pu-JDG_D6I3IjvPYyL8J-30" value="_ReadCandidateApplicationBuilder" style="whiteSpace=wrap;strokeWidth=2;" vertex="1" parent="WIyWlLk6GJQsqaUBKTNV-1">
          <mxGeometry x="959" y="1078" width="308" height="54" as="geometry" />
        </mxCell>
        <mxCell id="Pu-JDG_D6I3IjvPYyL8J-31" value="_ReadAllCandidateApplicationBuilder" style="whiteSpace=wrap;strokeWidth=2;" vertex="1" parent="WIyWlLk6GJQsqaUBKTNV-1">
          <mxGeometry x="949" y="974" width="327" height="54" as="geometry" />
        </mxCell>
        <mxCell id="Pu-JDG_D6I3IjvPYyL8J-32" value="_DeleteCandidateApplicationBuilder" style="whiteSpace=wrap;strokeWidth=2;" vertex="1" parent="WIyWlLk6GJQsqaUBKTNV-1">
          <mxGeometry x="952" y="870" width="320" height="54" as="geometry" />
        </mxCell>
        <mxCell id="Pu-JDG_D6I3IjvPYyL8J-33" value="_AddCandidateValidator" style="whiteSpace=wrap;strokeWidth=2;" vertex="1" parent="WIyWlLk6GJQsqaUBKTNV-1">
          <mxGeometry x="1342" y="3712" width="233" height="54" as="geometry" />
        </mxCell>
        <mxCell id="Pu-JDG_D6I3IjvPYyL8J-34" value="_CandidateBusinessHandler" style="whiteSpace=wrap;strokeWidth=2;" vertex="1" parent="WIyWlLk6GJQsqaUBKTNV-1">
          <mxGeometry x="1330" y="3390" width="256" height="54" as="geometry" />
        </mxCell>
        <mxCell id="Pu-JDG_D6I3IjvPYyL8J-35" value="_CandidateSerializer" style="whiteSpace=wrap;strokeWidth=2;" vertex="1" parent="WIyWlLk6GJQsqaUBKTNV-1">
          <mxGeometry x="1354" y="3504" width="208" height="54" as="geometry" />
        </mxCell>
        <mxCell id="Pu-JDG_D6I3IjvPYyL8J-36" value="_TokenValidator" style="whiteSpace=wrap;strokeWidth=2;" vertex="1" parent="WIyWlLk6GJQsqaUBKTNV-1">
          <mxGeometry x="1371" y="1834" width="174" height="54" as="geometry" />
        </mxCell>
        <mxCell id="Pu-JDG_D6I3IjvPYyL8J-37" value="_DeleteSerializer" style="whiteSpace=wrap;strokeWidth=2;" vertex="1" parent="WIyWlLk6GJQsqaUBKTNV-1">
          <mxGeometry x="1367" y="1420" width="183" height="54" as="geometry" />
        </mxCell>
        <mxCell id="Pu-JDG_D6I3IjvPYyL8J-38" value="_AddSkillsValidator" style="whiteSpace=wrap;strokeWidth=2;" vertex="1" parent="WIyWlLk6GJQsqaUBKTNV-1">
          <mxGeometry x="1014" y="3130" width="196" height="54" as="geometry" />
        </mxCell>
        <mxCell id="Pu-JDG_D6I3IjvPYyL8J-39" value="_SkillsBusinessHandler" style="whiteSpace=wrap;strokeWidth=2;" vertex="1" parent="WIyWlLk6GJQsqaUBKTNV-1">
          <mxGeometry x="1002" y="2757" width="220" height="54" as="geometry" />
        </mxCell>
        <mxCell id="Pu-JDG_D6I3IjvPYyL8J-40" value="_SkillsSerializer" style="whiteSpace=wrap;strokeWidth=2;" vertex="1" parent="WIyWlLk6GJQsqaUBKTNV-1">
          <mxGeometry x="1026" y="2861" width="172" height="54" as="geometry" />
        </mxCell>
        <mxCell id="Pu-JDG_D6I3IjvPYyL8J-41" value="_AddApplicationValidator" style="whiteSpace=wrap;strokeWidth=2;" vertex="1" parent="WIyWlLk6GJQsqaUBKTNV-1">
          <mxGeometry x="1338" y="1214" width="241" height="54" as="geometry" />
        </mxCell>
        <mxCell id="Pu-JDG_D6I3IjvPYyL8J-42" value="_ApplicationBusinessHandler" style="whiteSpace=wrap;strokeWidth=2;" vertex="1" parent="WIyWlLk6GJQsqaUBKTNV-1">
          <mxGeometry x="1326" y="974" width="265" height="54" as="geometry" />
        </mxCell>
        <mxCell id="Pu-JDG_D6I3IjvPYyL8J-43" value="_ApplicationSerializer" style="whiteSpace=wrap;strokeWidth=2;" vertex="1" parent="WIyWlLk6GJQsqaUBKTNV-1">
          <mxGeometry x="1350" y="1078" width="217" height="54" as="geometry" />
        </mxCell>
        <mxCell id="Pu-JDG_D6I3IjvPYyL8J-44" value="_AddExperienceValidator" style="whiteSpace=wrap;strokeWidth=2;" vertex="1" parent="WIyWlLk6GJQsqaUBKTNV-1">
          <mxGeometry x="1339" y="2074" width="239" height="54" as="geometry" />
        </mxCell>
        <mxCell id="Pu-JDG_D6I3IjvPYyL8J-45" value="_ExperienceBusinessHandler" style="whiteSpace=wrap;strokeWidth=2;" vertex="1" parent="WIyWlLk6GJQsqaUBKTNV-1">
          <mxGeometry x="1327" y="1626" width="263" height="54" as="geometry" />
        </mxCell>
        <mxCell id="Pu-JDG_D6I3IjvPYyL8J-46" value="_ExperienceSerializer" style="whiteSpace=wrap;strokeWidth=2;" vertex="1" parent="WIyWlLk6GJQsqaUBKTNV-1">
          <mxGeometry x="1351" y="1730" width="215" height="54" as="geometry" />
        </mxCell>
        <mxCell id="Pu-JDG_D6I3IjvPYyL8J-47" value="_AddEducationValidator" style="whiteSpace=wrap;strokeWidth=2;" vertex="1" parent="WIyWlLk6GJQsqaUBKTNV-1">
          <mxGeometry x="1343" y="2479" width="231" height="54" as="geometry" />
        </mxCell>
        <mxCell id="Pu-JDG_D6I3IjvPYyL8J-48" value="_EducationBusinessHandler" style="whiteSpace=wrap;strokeWidth=2;" vertex="1" parent="WIyWlLk6GJQsqaUBKTNV-1">
          <mxGeometry x="1331" y="2250" width="255" height="54" as="geometry" />
        </mxCell>
        <mxCell id="Pu-JDG_D6I3IjvPYyL8J-49" value="_EducationSerializer" style="whiteSpace=wrap;strokeWidth=2;" vertex="1" parent="WIyWlLk6GJQsqaUBKTNV-1">
          <mxGeometry x="1355" y="2354" width="207" height="54" as="geometry" />
        </mxCell>
        <mxCell id="Pu-JDG_D6I3IjvPYyL8J-50" value="CrudOperator" style="whiteSpace=wrap;strokeWidth=2;" vertex="1" parent="WIyWlLk6GJQsqaUBKTNV-1">
          <mxGeometry x="1654" y="2094" width="158" height="54" as="geometry" />
        </mxCell>
        <mxCell id="Pu-JDG_D6I3IjvPYyL8J-51" value="Token" style="whiteSpace=wrap;strokeWidth=2;" vertex="1" parent="WIyWlLk6GJQsqaUBKTNV-1">
          <mxGeometry x="1682" y="1636" width="101" height="54" as="geometry" />
        </mxCell>
        <mxCell id="Pu-JDG_D6I3IjvPYyL8J-52" value="CandidateModel" style="whiteSpace=wrap;strokeWidth=2;" vertex="1" parent="WIyWlLk6GJQsqaUBKTNV-1">
          <mxGeometry x="1645" y="3712" width="175" height="54" as="geometry" />
        </mxCell>
        <mxCell id="Pu-JDG_D6I3IjvPYyL8J-53" value="ApplicationModel" style="whiteSpace=wrap;strokeWidth=2;" vertex="1" parent="WIyWlLk6GJQsqaUBKTNV-1">
          <mxGeometry x="1641" y="515" width="183" height="54" as="geometry" />
        </mxCell>
        <mxCell id="Pu-JDG_D6I3IjvPYyL8J-54" value="ExperienceModel" style="whiteSpace=wrap;strokeWidth=2;" vertex="1" parent="WIyWlLk6GJQsqaUBKTNV-1">
          <mxGeometry x="1642" y="1242" width="181" height="54" as="geometry" />
        </mxCell>
        <mxCell id="Pu-JDG_D6I3IjvPYyL8J-55" value="EducationModel" style="whiteSpace=wrap;strokeWidth=2;" vertex="1" parent="WIyWlLk6GJQsqaUBKTNV-1">
          <mxGeometry x="1646" y="2908" width="173" height="54" as="geometry" />
        </mxCell>
        <mxCell id="Pu-JDG_D6I3IjvPYyL8J-56" value="SkillModel" style="whiteSpace=wrap;strokeWidth=2;" vertex="1" parent="WIyWlLk6GJQsqaUBKTNV-1">
          <mxGeometry x="1392" y="2768" width="132" height="54" as="geometry" />
        </mxCell>
        <mxCell id="Pu-JDG_D6I3IjvPYyL8J-57" value="_LoginController" style="whiteSpace=wrap;strokeWidth=2;" vertex="1" parent="WIyWlLk6GJQsqaUBKTNV-1">
          <mxGeometry x="662" y="124" width="179" height="54" as="geometry" />
        </mxCell>
        <mxCell id="Pu-JDG_D6I3IjvPYyL8J-58" value="_LoginBuilder" style="whiteSpace=wrap;strokeWidth=2;" vertex="1" parent="WIyWlLk6GJQsqaUBKTNV-1">
          <mxGeometry x="1034" y="124" width="157" height="54" as="geometry" />
        </mxCell>
        <mxCell id="Pu-JDG_D6I3IjvPYyL8J-59" value="_LoginValidator" style="whiteSpace=wrap;strokeWidth=2;" vertex="1" parent="WIyWlLk6GJQsqaUBKTNV-1">
          <mxGeometry x="1373" y="228" width="171" height="54" as="geometry" />
        </mxCell>
        <mxCell id="Pu-JDG_D6I3IjvPYyL8J-60" value="_LoginBusinessHandler" style="whiteSpace=wrap;strokeWidth=2;" vertex="1" parent="WIyWlLk6GJQsqaUBKTNV-1">
          <mxGeometry x="1347" y="124" width="222" height="54" as="geometry" />
        </mxCell>
        <mxCell id="Pu-JDG_D6I3IjvPYyL8J-61" value="_LoginSerializer" style="whiteSpace=wrap;strokeWidth=2;" vertex="1" parent="WIyWlLk6GJQsqaUBKTNV-1">
          <mxGeometry x="1371" y="20" width="174" height="54" as="geometry" />
        </mxCell>
        <mxCell id="Pu-JDG_D6I3IjvPYyL8J-62" value="_UserController" style="whiteSpace=wrap;strokeWidth=2;" vertex="1" parent="WIyWlLk6GJQsqaUBKTNV-1">
          <mxGeometry x="666" y="528" width="173" height="54" as="geometry" />
        </mxCell>
        <mxCell id="Pu-JDG_D6I3IjvPYyL8J-63" value="_AddUserBuilder" style="whiteSpace=wrap;strokeWidth=2;" vertex="1" parent="WIyWlLk6GJQsqaUBKTNV-1">
          <mxGeometry x="1023" y="756" width="178" height="54" as="geometry" />
        </mxCell>
        <mxCell id="Pu-JDG_D6I3IjvPYyL8J-64" value="_UserValidator" style="whiteSpace=wrap;strokeWidth=2;" vertex="1" parent="WIyWlLk6GJQsqaUBKTNV-1">
          <mxGeometry x="1376" y="798" width="164" height="54" as="geometry" />
        </mxCell>
        <mxCell id="Pu-JDG_D6I3IjvPYyL8J-65" value="_UserBusinessHandler" style="whiteSpace=wrap;strokeWidth=2;" vertex="1" parent="WIyWlLk6GJQsqaUBKTNV-1">
          <mxGeometry x="1350" y="560" width="216" height="54" as="geometry" />
        </mxCell>
        <mxCell id="Pu-JDG_D6I3IjvPYyL8J-66" value="_RegisterSerializer" style="whiteSpace=wrap;strokeWidth=2;" vertex="1" parent="WIyWlLk6GJQsqaUBKTNV-1">
          <mxGeometry x="1361" y="694" width="194" height="54" as="geometry" />
        </mxCell>
        <mxCell id="Pu-JDG_D6I3IjvPYyL8J-67" value="_UpdateUserBuilder" style="whiteSpace=wrap;strokeWidth=2;" vertex="1" parent="WIyWlLk6GJQsqaUBKTNV-1">
          <mxGeometry x="1011" y="642" width="203" height="54" as="geometry" />
        </mxCell>
        <mxCell id="Pu-JDG_D6I3IjvPYyL8J-68" value="_UserSerializer" style="whiteSpace=wrap;strokeWidth=2;" vertex="1" parent="WIyWlLk6GJQsqaUBKTNV-1">
          <mxGeometry x="1374" y="456" width="168" height="54" as="geometry" />
        </mxCell>
        <mxCell id="Pu-JDG_D6I3IjvPYyL8J-69" value="_ReadUserBuilder" style="whiteSpace=wrap;strokeWidth=2;" vertex="1" parent="WIyWlLk6GJQsqaUBKTNV-1">
          <mxGeometry x="1020" y="518" width="186" height="54" as="geometry" />
        </mxCell>
        <mxCell id="Pu-JDG_D6I3IjvPYyL8J-70" value="_ReadAllUserBuilder" style="whiteSpace=wrap;strokeWidth=2;" vertex="1" parent="WIyWlLk6GJQsqaUBKTNV-1">
          <mxGeometry x="1010" y="394" width="205" height="54" as="geometry" />
        </mxCell>
        <mxCell id="Pu-JDG_D6I3IjvPYyL8J-71" value="_DeleteUserBuilder" style="whiteSpace=wrap;strokeWidth=2;" vertex="1" parent="WIyWlLk6GJQsqaUBKTNV-1">
          <mxGeometry x="1013" y="290" width="198" height="54" as="geometry" />
        </mxCell>
        <mxCell id="Pu-JDG_D6I3IjvPYyL8J-72" value="_ExportController" style="whiteSpace=wrap;strokeWidth=2;" vertex="1" parent="WIyWlLk6GJQsqaUBKTNV-1">
          <mxGeometry x="336" y="4128" width="187" height="54" as="geometry" />
        </mxCell>
        <mxCell id="Pu-JDG_D6I3IjvPYyL8J-73" value="_ExportAllCandidateBuilder" style="whiteSpace=wrap;strokeWidth=2;" vertex="1" parent="WIyWlLk6GJQsqaUBKTNV-1">
          <mxGeometry x="623" y="3764" width="257" height="54" as="geometry" />
        </mxCell>
        <mxCell id="Pu-JDG_D6I3IjvPYyL8J-74" value="_ExportCandidateBuilder" style="whiteSpace=wrap;strokeWidth=2;" vertex="1" parent="WIyWlLk6GJQsqaUBKTNV-1">
          <mxGeometry x="633" y="4128" width="239" height="54" as="geometry" />
        </mxCell>
        <mxCell id="Pu-JDG_D6I3IjvPYyL8J-75" value="_CreateExtensionValidator" style="whiteSpace=wrap;strokeWidth=2;" vertex="1" parent="WIyWlLk6GJQsqaUBKTNV-1">
          <mxGeometry x="988" y="4180" width="249" height="54" as="geometry" />
        </mxCell>
        <mxCell id="Pu-JDG_D6I3IjvPYyL8J-76" value="_ExtensionCreator" style="whiteSpace=wrap;strokeWidth=2;" vertex="1" parent="WIyWlLk6GJQsqaUBKTNV-1">
          <mxGeometry x="1017" y="4076" width="191" height="54" as="geometry" />
        </mxCell>
        <mxCell id="Pu-JDG_D6I3IjvPYyL8J-77" value="_ExportCandidateSerializer" style="whiteSpace=wrap;strokeWidth=2;" vertex="1" parent="WIyWlLk6GJQsqaUBKTNV-1">
          <mxGeometry x="985" y="3774" width="255" height="54" as="geometry" />
        </mxCell>
        <mxCell id="Pu-JDG_D6I3IjvPYyL8J-78" value="_CreateExtensionBuilder" style="whiteSpace=wrap;strokeWidth=2;" vertex="1" parent="WIyWlLk6GJQsqaUBKTNV-1">
          <mxGeometry x="1340" y="3868" width="236" height="54" as="geometry" />
        </mxCell>
        <mxCell id="Pu-JDG_D6I3IjvPYyL8J-79" value="ExcelCreator" style="whiteSpace=wrap;strokeWidth=2;" vertex="1" parent="WIyWlLk6GJQsqaUBKTNV-1">
          <mxGeometry x="1382" y="3972" width="152" height="54" as="geometry" />
        </mxCell>
        <mxCell id="Pu-JDG_D6I3IjvPYyL8J-80" value="CSVCreator" style="whiteSpace=wrap;strokeWidth=2;" vertex="1" parent="WIyWlLk6GJQsqaUBKTNV-1">
          <mxGeometry x="1388" y="4076" width="141" height="54" as="geometry" />
        </mxCell>
        <mxCell id="Pu-JDG_D6I3IjvPYyL8J-81" value="PDFCreator" style="whiteSpace=wrap;strokeWidth=2;" vertex="1" parent="WIyWlLk6GJQsqaUBKTNV-1">
          <mxGeometry x="1388" y="4180" width="141" height="54" as="geometry" />
        </mxCell>
        <mxCell id="Pu-JDG_D6I3IjvPYyL8J-82" value="_DataSerializer" style="whiteSpace=wrap;strokeWidth=2;" vertex="1" parent="WIyWlLk6GJQsqaUBKTNV-1">
          <mxGeometry x="1648" y="4024" width="169" height="54" as="geometry" />
        </mxCell>
        <mxCell id="Pu-JDG_D6I3IjvPYyL8J-83" value="RowExcelData" style="whiteSpace=wrap;strokeWidth=2;" vertex="1" parent="WIyWlLk6GJQsqaUBKTNV-1">
          <mxGeometry x="1652" y="3920" width="160" height="54" as="geometry" />
        </mxCell>
        <mxCell id="Pu-JDG_D6I3IjvPYyL8J-84" value="DataManger" style="whiteSpace=wrap;strokeWidth=2;" vertex="1" parent="WIyWlLk6GJQsqaUBKTNV-1">
          <mxGeometry x="1660" y="3816" width="144" height="54" as="geometry" />
        </mxCell>
        <mxCell id="Pu-JDG_D6I3IjvPYyL8J-85" value="UserModel" style="whiteSpace=wrap;strokeWidth=2;" vertex="1" parent="WIyWlLk6GJQsqaUBKTNV-1">
          <mxGeometry x="1665" y="144" width="134" height="54" as="geometry" />
        </mxCell>
        <mxCell id="Pu-JDG_D6I3IjvPYyL8J-86" value="" style="curved=1;startArrow=none;endArrow=block;exitX=0.51;exitY=1;entryX=0;entryY=0.5;rounded=0;" edge="1" parent="WIyWlLk6GJQsqaUBKTNV-1" source="Pu-JDG_D6I3IjvPYyL8J-0" target="Pu-JDG_D6I3IjvPYyL8J-3">
          <mxGeometry relative="1" as="geometry">
            <Array as="points">
              <mxPoint x="280" y="3469" />
            </Array>
          </mxGeometry>
        </mxCell>
        <mxCell id="Pu-JDG_D6I3IjvPYyL8J-87" value="" style="curved=1;startArrow=none;endArrow=block;exitX=0.6;exitY=1;entryX=0;entryY=0.5;rounded=0;" edge="1" parent="WIyWlLk6GJQsqaUBKTNV-1" source="Pu-JDG_D6I3IjvPYyL8J-3" target="Pu-JDG_D6I3IjvPYyL8J-4">
          <mxGeometry relative="1" as="geometry">
            <Array as="points">
              <mxPoint x="924" y="3687" />
            </Array>
          </mxGeometry>
        </mxCell>
        <mxCell id="Pu-JDG_D6I3IjvPYyL8J-88" value="" style="curved=1;startArrow=none;endArrow=block;exitX=0.95;exitY=1;entryX=0;entryY=0.5;rounded=0;" edge="1" parent="WIyWlLk6GJQsqaUBKTNV-1" source="Pu-JDG_D6I3IjvPYyL8J-4" target="Pu-JDG_D6I3IjvPYyL8J-33">
          <mxGeometry relative="1" as="geometry">
            <Array as="points">
              <mxPoint x="1301" y="3739" />
            </Array>
          </mxGeometry>
        </mxCell>
        <mxCell id="Pu-JDG_D6I3IjvPYyL8J-89" value="" style="curved=1;startArrow=none;endArrow=block;exitX=1;exitY=0.61;entryX=0.44;entryY=1;rounded=0;" edge="1" parent="WIyWlLk6GJQsqaUBKTNV-1" source="Pu-JDG_D6I3IjvPYyL8J-4" target="Pu-JDG_D6I3IjvPYyL8J-34">
          <mxGeometry relative="1" as="geometry">
            <Array as="points">
              <mxPoint x="1301" y="3697" />
            </Array>
          </mxGeometry>
        </mxCell>
        <mxCell id="Pu-JDG_D6I3IjvPYyL8J-90" value="" style="curved=1;startArrow=none;endArrow=block;exitX=0.56;exitY=1;entryX=0.48;entryY=1;rounded=0;" edge="1" parent="WIyWlLk6GJQsqaUBKTNV-1" source="Pu-JDG_D6I3IjvPYyL8J-34" target="Pu-JDG_D6I3IjvPYyL8J-50">
          <mxGeometry relative="1" as="geometry">
            <Array as="points">
              <mxPoint x="1616" y="3677" />
            </Array>
          </mxGeometry>
        </mxCell>
        <mxCell id="Pu-JDG_D6I3IjvPYyL8J-91" value="" style="curved=1;startArrow=none;endArrow=block;exitX=0.58;exitY=1;entryX=0.34;entryY=0;rounded=0;" edge="1" parent="WIyWlLk6GJQsqaUBKTNV-1" source="Pu-JDG_D6I3IjvPYyL8J-34" target="Pu-JDG_D6I3IjvPYyL8J-52">
          <mxGeometry relative="1" as="geometry">
            <Array as="points">
              <mxPoint x="1616" y="3625" />
            </Array>
          </mxGeometry>
        </mxCell>
        <mxCell id="Pu-JDG_D6I3IjvPYyL8J-92" value="" style="curved=1;startArrow=none;endArrow=block;exitX=0.55;exitY=0;entryX=0.48;entryY=1;rounded=0;" edge="1" parent="WIyWlLk6GJQsqaUBKTNV-1" source="Pu-JDG_D6I3IjvPYyL8J-34" target="Pu-JDG_D6I3IjvPYyL8J-51">
          <mxGeometry relative="1" as="geometry">
            <Array as="points">
              <mxPoint x="1616" y="3094" />
            </Array>
          </mxGeometry>
        </mxCell>
        <mxCell id="Pu-JDG_D6I3IjvPYyL8J-93" value="" style="curved=1;startArrow=none;endArrow=block;exitX=1;exitY=0.05;entryX=0.32;entryY=1;rounded=0;" edge="1" parent="WIyWlLk6GJQsqaUBKTNV-1" source="Pu-JDG_D6I3IjvPYyL8J-4" target="Pu-JDG_D6I3IjvPYyL8J-35">
          <mxGeometry relative="1" as="geometry">
            <Array as="points">
              <mxPoint x="1301" y="3645" />
            </Array>
          </mxGeometry>
        </mxCell>
        <mxCell id="Pu-JDG_D6I3IjvPYyL8J-94" value="" style="curved=1;startArrow=none;endArrow=block;exitX=0.69;exitY=1;entryX=0;entryY=0.5;rounded=0;" edge="1" parent="WIyWlLk6GJQsqaUBKTNV-1" source="Pu-JDG_D6I3IjvPYyL8J-3" target="Pu-JDG_D6I3IjvPYyL8J-5">
          <mxGeometry relative="1" as="geometry">
            <Array as="points">
              <mxPoint x="924" y="3583" />
            </Array>
          </mxGeometry>
        </mxCell>
        <mxCell id="Pu-JDG_D6I3IjvPYyL8J-95" value="" style="curved=1;startArrow=none;endArrow=block;exitX=0.99;exitY=1;entryX=0.49;entryY=1;rounded=0;" edge="1" parent="WIyWlLk6GJQsqaUBKTNV-1" source="Pu-JDG_D6I3IjvPYyL8J-5" target="Pu-JDG_D6I3IjvPYyL8J-36">
          <mxGeometry relative="1" as="geometry">
            <Array as="points">
              <mxPoint x="1301" y="3625" />
            </Array>
          </mxGeometry>
        </mxCell>
        <mxCell id="Pu-JDG_D6I3IjvPYyL8J-96" value="" style="curved=1;startArrow=none;endArrow=block;exitX=1;exitY=0.5;entryX=0.4;entryY=1;rounded=0;" edge="1" parent="WIyWlLk6GJQsqaUBKTNV-1" source="Pu-JDG_D6I3IjvPYyL8J-5" target="Pu-JDG_D6I3IjvPYyL8J-34">
          <mxGeometry relative="1" as="geometry">
            <Array as="points">
              <mxPoint x="1301" y="3583" />
            </Array>
          </mxGeometry>
        </mxCell>
        <mxCell id="Pu-JDG_D6I3IjvPYyL8J-97" value="" style="curved=1;startArrow=none;endArrow=block;exitX=0.99;exitY=0;entryX=0;entryY=0.62;rounded=0;" edge="1" parent="WIyWlLk6GJQsqaUBKTNV-1" source="Pu-JDG_D6I3IjvPYyL8J-5" target="Pu-JDG_D6I3IjvPYyL8J-35">
          <mxGeometry relative="1" as="geometry">
            <Array as="points">
              <mxPoint x="1301" y="3541" />
            </Array>
          </mxGeometry>
        </mxCell>
        <mxCell id="Pu-JDG_D6I3IjvPYyL8J-98" value="" style="curved=1;startArrow=none;endArrow=block;exitX=1;exitY=0.61;entryX=0;entryY=0.5;rounded=0;" edge="1" parent="WIyWlLk6GJQsqaUBKTNV-1" source="Pu-JDG_D6I3IjvPYyL8J-3" target="Pu-JDG_D6I3IjvPYyL8J-7">
          <mxGeometry relative="1" as="geometry">
            <Array as="points">
              <mxPoint x="924" y="3479" />
            </Array>
          </mxGeometry>
        </mxCell>
        <mxCell id="Pu-JDG_D6I3IjvPYyL8J-99" value="" style="curved=1;startArrow=none;endArrow=block;exitX=0.99;exitY=1;entryX=0.49;entryY=1;rounded=0;" edge="1" parent="WIyWlLk6GJQsqaUBKTNV-1" source="Pu-JDG_D6I3IjvPYyL8J-7" target="Pu-JDG_D6I3IjvPYyL8J-36">
          <mxGeometry relative="1" as="geometry">
            <Array as="points">
              <mxPoint x="1301" y="3521" />
            </Array>
          </mxGeometry>
        </mxCell>
        <mxCell id="Pu-JDG_D6I3IjvPYyL8J-100" value="" style="curved=1;startArrow=none;endArrow=block;exitX=1;exitY=0.5;entryX=0.23;entryY=1;rounded=0;" edge="1" parent="WIyWlLk6GJQsqaUBKTNV-1" source="Pu-JDG_D6I3IjvPYyL8J-7" target="Pu-JDG_D6I3IjvPYyL8J-34">
          <mxGeometry relative="1" as="geometry">
            <Array as="points">
              <mxPoint x="1301" y="3479" />
            </Array>
          </mxGeometry>
        </mxCell>
        <mxCell id="Pu-JDG_D6I3IjvPYyL8J-101" value="" style="curved=1;startArrow=none;endArrow=block;exitX=0.99;exitY=0;entryX=0.28;entryY=0;rounded=0;" edge="1" parent="WIyWlLk6GJQsqaUBKTNV-1" source="Pu-JDG_D6I3IjvPYyL8J-7" target="Pu-JDG_D6I3IjvPYyL8J-35">
          <mxGeometry relative="1" as="geometry">
            <Array as="points">
              <mxPoint x="1301" y="3437" />
            </Array>
          </mxGeometry>
        </mxCell>
        <mxCell id="Pu-JDG_D6I3IjvPYyL8J-102" value="" style="curved=1;startArrow=none;endArrow=block;exitX=0.71;exitY=0;entryX=0;entryY=0.5;rounded=0;" edge="1" parent="WIyWlLk6GJQsqaUBKTNV-1" source="Pu-JDG_D6I3IjvPYyL8J-3" target="Pu-JDG_D6I3IjvPYyL8J-6">
          <mxGeometry relative="1" as="geometry">
            <Array as="points">
              <mxPoint x="924" y="3365" />
            </Array>
          </mxGeometry>
        </mxCell>
        <mxCell id="Pu-JDG_D6I3IjvPYyL8J-103" value="" style="curved=1;startArrow=none;endArrow=block;exitX=0.93;exitY=1;entryX=0.49;entryY=1;rounded=0;" edge="1" parent="WIyWlLk6GJQsqaUBKTNV-1" source="Pu-JDG_D6I3IjvPYyL8J-6" target="Pu-JDG_D6I3IjvPYyL8J-36">
          <mxGeometry relative="1" as="geometry">
            <Array as="points">
              <mxPoint x="1301" y="3417" />
            </Array>
          </mxGeometry>
        </mxCell>
        <mxCell id="Pu-JDG_D6I3IjvPYyL8J-104" value="" style="curved=1;startArrow=none;endArrow=block;exitX=1;exitY=0.25;entryX=0.28;entryY=0;rounded=0;" edge="1" parent="WIyWlLk6GJQsqaUBKTNV-1" source="Pu-JDG_D6I3IjvPYyL8J-6" target="Pu-JDG_D6I3IjvPYyL8J-34">
          <mxGeometry relative="1" as="geometry">
            <Array as="points">
              <mxPoint x="1301" y="3343" />
            </Array>
          </mxGeometry>
        </mxCell>
        <mxCell id="Pu-JDG_D6I3IjvPYyL8J-105" value="" style="curved=1;startArrow=none;endArrow=block;exitX=1;exitY=0.03;entryX=0.4;entryY=0;rounded=0;" edge="1" parent="WIyWlLk6GJQsqaUBKTNV-1" source="Pu-JDG_D6I3IjvPYyL8J-6" target="Pu-JDG_D6I3IjvPYyL8J-35">
          <mxGeometry relative="1" as="geometry">
            <Array as="points">
              <mxPoint x="1301" y="3323" />
            </Array>
          </mxGeometry>
        </mxCell>
        <mxCell id="Pu-JDG_D6I3IjvPYyL8J-106" value="" style="curved=1;startArrow=none;endArrow=block;exitX=0.61;exitY=0;entryX=0;entryY=0.5;rounded=0;" edge="1" parent="WIyWlLk6GJQsqaUBKTNV-1" source="Pu-JDG_D6I3IjvPYyL8J-3" target="Pu-JDG_D6I3IjvPYyL8J-8">
          <mxGeometry relative="1" as="geometry">
            <Array as="points">
              <mxPoint x="924" y="3261" />
            </Array>
          </mxGeometry>
        </mxCell>
        <mxCell id="Pu-JDG_D6I3IjvPYyL8J-107" value="" style="curved=1;startArrow=none;endArrow=block;exitX=1;exitY=0.99;entryX=0.48;entryY=1;rounded=0;" edge="1" parent="WIyWlLk6GJQsqaUBKTNV-1" source="Pu-JDG_D6I3IjvPYyL8J-8" target="Pu-JDG_D6I3IjvPYyL8J-36">
          <mxGeometry relative="1" as="geometry">
            <Array as="points">
              <mxPoint x="1301" y="3303" />
            </Array>
          </mxGeometry>
        </mxCell>
        <mxCell id="Pu-JDG_D6I3IjvPYyL8J-108" value="" style="curved=1;startArrow=none;endArrow=block;exitX=1;exitY=0.12;entryX=0.41;entryY=0;rounded=0;" edge="1" parent="WIyWlLk6GJQsqaUBKTNV-1" source="Pu-JDG_D6I3IjvPYyL8J-8" target="Pu-JDG_D6I3IjvPYyL8J-34">
          <mxGeometry relative="1" as="geometry">
            <Array as="points">
              <mxPoint x="1301" y="3229" />
            </Array>
          </mxGeometry>
        </mxCell>
        <mxCell id="Pu-JDG_D6I3IjvPYyL8J-109" value="" style="curved=1;startArrow=none;endArrow=block;exitX=0.79;exitY=0;entryX=0.49;entryY=1;rounded=0;" edge="1" parent="WIyWlLk6GJQsqaUBKTNV-1" source="Pu-JDG_D6I3IjvPYyL8J-8" target="Pu-JDG_D6I3IjvPYyL8J-37">
          <mxGeometry relative="1" as="geometry">
            <Array as="points">
              <mxPoint x="1301" y="3187" />
            </Array>
          </mxGeometry>
        </mxCell>
        <mxCell id="Pu-JDG_D6I3IjvPYyL8J-110" value="" style="curved=1;startArrow=none;endArrow=block;exitX=0.52;exitY=1;entryX=0;entryY=0.5;rounded=0;" edge="1" parent="WIyWlLk6GJQsqaUBKTNV-1" source="Pu-JDG_D6I3IjvPYyL8J-0" target="Pu-JDG_D6I3IjvPYyL8J-9">
          <mxGeometry relative="1" as="geometry">
            <Array as="points">
              <mxPoint x="280" y="2888" />
            </Array>
          </mxGeometry>
        </mxCell>
        <mxCell id="Pu-JDG_D6I3IjvPYyL8J-111" value="" style="curved=1;startArrow=none;endArrow=block;exitX=0.57;exitY=1;entryX=0;entryY=0.5;rounded=0;" edge="1" parent="WIyWlLk6GJQsqaUBKTNV-1" source="Pu-JDG_D6I3IjvPYyL8J-9" target="Pu-JDG_D6I3IjvPYyL8J-10">
          <mxGeometry relative="1" as="geometry">
            <Array as="points">
              <mxPoint x="580" y="3116" />
            </Array>
          </mxGeometry>
        </mxCell>
        <mxCell id="Pu-JDG_D6I3IjvPYyL8J-112" value="" style="curved=1;startArrow=none;endArrow=block;exitX=0.95;exitY=1;entryX=0;entryY=0.5;rounded=0;" edge="1" parent="WIyWlLk6GJQsqaUBKTNV-1" source="Pu-JDG_D6I3IjvPYyL8J-10" target="Pu-JDG_D6I3IjvPYyL8J-38">
          <mxGeometry relative="1" as="geometry">
            <Array as="points">
              <mxPoint x="924" y="3157" />
            </Array>
          </mxGeometry>
        </mxCell>
        <mxCell id="Pu-JDG_D6I3IjvPYyL8J-113" value="" style="curved=1;startArrow=none;endArrow=block;exitX=1;exitY=0.62;entryX=0.43;entryY=1;rounded=0;" edge="1" parent="WIyWlLk6GJQsqaUBKTNV-1" source="Pu-JDG_D6I3IjvPYyL8J-10" target="Pu-JDG_D6I3IjvPYyL8J-39">
          <mxGeometry relative="1" as="geometry">
            <Array as="points">
              <mxPoint x="924" y="3125" />
            </Array>
          </mxGeometry>
        </mxCell>
        <mxCell id="Pu-JDG_D6I3IjvPYyL8J-114" value="" style="curved=1;startArrow=none;endArrow=block;exitX=1;exitY=0.2;entryX=0.45;entryY=0;rounded=0;" edge="1" parent="WIyWlLk6GJQsqaUBKTNV-1" source="Pu-JDG_D6I3IjvPYyL8J-10" target="Pu-JDG_D6I3IjvPYyL8J-34">
          <mxGeometry relative="1" as="geometry">
            <Array as="points">
              <mxPoint x="924" y="3094" />
              <mxPoint x="1301" y="3094" />
            </Array>
          </mxGeometry>
        </mxCell>
        <mxCell id="Pu-JDG_D6I3IjvPYyL8J-115" value="" style="curved=1;startArrow=none;endArrow=block;exitX=0.82;exitY=1;entryX=0.47;entryY=1;rounded=0;" edge="1" parent="WIyWlLk6GJQsqaUBKTNV-1" source="Pu-JDG_D6I3IjvPYyL8J-39" target="Pu-JDG_D6I3IjvPYyL8J-50">
          <mxGeometry relative="1" as="geometry">
            <Array as="points">
              <mxPoint x="1301" y="2857" />
              <mxPoint x="1616" y="2857" />
            </Array>
          </mxGeometry>
        </mxCell>
        <mxCell id="Pu-JDG_D6I3IjvPYyL8J-116" value="" style="curved=1;startArrow=none;endArrow=block;exitX=1;exitY=0.62;entryX=0;entryY=0.5;rounded=0;" edge="1" parent="WIyWlLk6GJQsqaUBKTNV-1" source="Pu-JDG_D6I3IjvPYyL8J-39" target="Pu-JDG_D6I3IjvPYyL8J-56">
          <mxGeometry relative="1" as="geometry">
            <Array as="points">
              <mxPoint x="1301" y="2795" />
            </Array>
          </mxGeometry>
        </mxCell>
        <mxCell id="Pu-JDG_D6I3IjvPYyL8J-117" value="" style="curved=1;startArrow=none;endArrow=block;exitX=0.96;exitY=0;entryX=0.47;entryY=1;rounded=0;" edge="1" parent="WIyWlLk6GJQsqaUBKTNV-1" source="Pu-JDG_D6I3IjvPYyL8J-39" target="Pu-JDG_D6I3IjvPYyL8J-51">
          <mxGeometry relative="1" as="geometry">
            <Array as="points">
              <mxPoint x="1301" y="2733" />
              <mxPoint x="1616" y="2733" />
            </Array>
          </mxGeometry>
        </mxCell>
        <mxCell id="Pu-JDG_D6I3IjvPYyL8J-118" value="" style="curved=1;startArrow=none;endArrow=block;exitX=0.82;exitY=0;entryX=0.48;entryY=0;rounded=0;" edge="1" parent="WIyWlLk6GJQsqaUBKTNV-1" source="Pu-JDG_D6I3IjvPYyL8J-39" target="Pu-JDG_D6I3IjvPYyL8J-34">
          <mxGeometry relative="1" as="geometry">
            <Array as="points">
              <mxPoint x="1301" y="2712" />
            </Array>
          </mxGeometry>
        </mxCell>
        <mxCell id="Pu-JDG_D6I3IjvPYyL8J-119" value="" style="curved=1;startArrow=none;endArrow=block;exitX=0.94;exitY=0;entryX=0.34;entryY=1;rounded=0;" edge="1" parent="WIyWlLk6GJQsqaUBKTNV-1" source="Pu-JDG_D6I3IjvPYyL8J-10" target="Pu-JDG_D6I3IjvPYyL8J-40">
          <mxGeometry relative="1" as="geometry">
            <Array as="points">
              <mxPoint x="924" y="3074" />
            </Array>
          </mxGeometry>
        </mxCell>
        <mxCell id="Pu-JDG_D6I3IjvPYyL8J-120" value="" style="curved=1;startArrow=none;endArrow=block;exitX=0.63;exitY=1;entryX=0;entryY=0.5;rounded=0;" edge="1" parent="WIyWlLk6GJQsqaUBKTNV-1" source="Pu-JDG_D6I3IjvPYyL8J-9" target="Pu-JDG_D6I3IjvPYyL8J-11">
          <mxGeometry relative="1" as="geometry">
            <Array as="points">
              <mxPoint x="580" y="3012" />
            </Array>
          </mxGeometry>
        </mxCell>
        <mxCell id="Pu-JDG_D6I3IjvPYyL8J-121" value="" style="curved=1;startArrow=none;endArrow=block;exitX=0.9;exitY=1;entryX=0.48;entryY=1;rounded=0;" edge="1" parent="WIyWlLk6GJQsqaUBKTNV-1" source="Pu-JDG_D6I3IjvPYyL8J-11" target="Pu-JDG_D6I3IjvPYyL8J-36">
          <mxGeometry relative="1" as="geometry">
            <Array as="points">
              <mxPoint x="924" y="3054" />
              <mxPoint x="1301" y="3054" />
            </Array>
          </mxGeometry>
        </mxCell>
        <mxCell id="Pu-JDG_D6I3IjvPYyL8J-122" value="" style="curved=1;startArrow=none;endArrow=block;exitX=1;exitY=0.5;entryX=0.4;entryY=1;rounded=0;" edge="1" parent="WIyWlLk6GJQsqaUBKTNV-1" source="Pu-JDG_D6I3IjvPYyL8J-11" target="Pu-JDG_D6I3IjvPYyL8J-39">
          <mxGeometry relative="1" as="geometry">
            <Array as="points">
              <mxPoint x="924" y="3012" />
            </Array>
          </mxGeometry>
        </mxCell>
        <mxCell id="Pu-JDG_D6I3IjvPYyL8J-123" value="" style="curved=1;startArrow=none;endArrow=block;exitX=0.9;exitY=0;entryX=0.14;entryY=1;rounded=0;" edge="1" parent="WIyWlLk6GJQsqaUBKTNV-1" source="Pu-JDG_D6I3IjvPYyL8J-11" target="Pu-JDG_D6I3IjvPYyL8J-40">
          <mxGeometry relative="1" as="geometry">
            <Array as="points">
              <mxPoint x="924" y="2970" />
            </Array>
          </mxGeometry>
        </mxCell>
        <mxCell id="Pu-JDG_D6I3IjvPYyL8J-124" value="" style="curved=1;startArrow=none;endArrow=block;exitX=1;exitY=0.02;entryX=0;entryY=0.5;rounded=0;" edge="1" parent="WIyWlLk6GJQsqaUBKTNV-1" source="Pu-JDG_D6I3IjvPYyL8J-9" target="Pu-JDG_D6I3IjvPYyL8J-12">
          <mxGeometry relative="1" as="geometry">
            <Array as="points">
              <mxPoint x="580" y="2857" />
            </Array>
          </mxGeometry>
        </mxCell>
        <mxCell id="Pu-JDG_D6I3IjvPYyL8J-125" value="" style="curved=1;startArrow=none;endArrow=block;exitX=0.69;exitY=1;entryX=0.48;entryY=1;rounded=0;" edge="1" parent="WIyWlLk6GJQsqaUBKTNV-1" source="Pu-JDG_D6I3IjvPYyL8J-12" target="Pu-JDG_D6I3IjvPYyL8J-36">
          <mxGeometry relative="1" as="geometry">
            <Array as="points">
              <mxPoint x="924" y="2950" />
              <mxPoint x="1301" y="2950" />
            </Array>
          </mxGeometry>
        </mxCell>
        <mxCell id="Pu-JDG_D6I3IjvPYyL8J-126" value="" style="curved=1;startArrow=none;endArrow=block;exitX=1;exitY=0.34;entryX=0.13;entryY=1;rounded=0;" edge="1" parent="WIyWlLk6GJQsqaUBKTNV-1" source="Pu-JDG_D6I3IjvPYyL8J-12" target="Pu-JDG_D6I3IjvPYyL8J-39">
          <mxGeometry relative="1" as="geometry">
            <Array as="points">
              <mxPoint x="924" y="2846" />
            </Array>
          </mxGeometry>
        </mxCell>
        <mxCell id="Pu-JDG_D6I3IjvPYyL8J-127" value="" style="curved=1;startArrow=none;endArrow=block;exitX=1;exitY=0.06;entryX=0.03;entryY=0;rounded=0;" edge="1" parent="WIyWlLk6GJQsqaUBKTNV-1" source="Pu-JDG_D6I3IjvPYyL8J-12" target="Pu-JDG_D6I3IjvPYyL8J-40">
          <mxGeometry relative="1" as="geometry">
            <Array as="points">
              <mxPoint x="924" y="2826" />
            </Array>
          </mxGeometry>
        </mxCell>
        <mxCell id="Pu-JDG_D6I3IjvPYyL8J-128" value="" style="curved=1;startArrow=none;endArrow=block;exitX=0.56;exitY=0;entryX=0;entryY=0.5;rounded=0;" edge="1" parent="WIyWlLk6GJQsqaUBKTNV-1" source="Pu-JDG_D6I3IjvPYyL8J-9" target="Pu-JDG_D6I3IjvPYyL8J-13">
          <mxGeometry relative="1" as="geometry">
            <Array as="points">
              <mxPoint x="580" y="2640" />
            </Array>
          </mxGeometry>
        </mxCell>
        <mxCell id="Pu-JDG_D6I3IjvPYyL8J-129" value="" style="curved=1;startArrow=none;endArrow=block;exitX=1;exitY=0.97;entryX=0.47;entryY=1;rounded=0;" edge="1" parent="WIyWlLk6GJQsqaUBKTNV-1" source="Pu-JDG_D6I3IjvPYyL8J-13" target="Pu-JDG_D6I3IjvPYyL8J-36">
          <mxGeometry relative="1" as="geometry">
            <Array as="points">
              <mxPoint x="924" y="2671" />
              <mxPoint x="1301" y="2671" />
            </Array>
          </mxGeometry>
        </mxCell>
        <mxCell id="Pu-JDG_D6I3IjvPYyL8J-130" value="" style="curved=1;startArrow=none;endArrow=block;exitX=1;exitY=0.33;entryX=0.35;entryY=0;rounded=0;" edge="1" parent="WIyWlLk6GJQsqaUBKTNV-1" source="Pu-JDG_D6I3IjvPYyL8J-13" target="Pu-JDG_D6I3IjvPYyL8J-39">
          <mxGeometry relative="1" as="geometry">
            <Array as="points">
              <mxPoint x="924" y="2629" />
            </Array>
          </mxGeometry>
        </mxCell>
        <mxCell id="Pu-JDG_D6I3IjvPYyL8J-131" value="" style="curved=1;startArrow=none;endArrow=block;exitX=0.89;exitY=0;entryX=0.4;entryY=0;rounded=0;" edge="1" parent="WIyWlLk6GJQsqaUBKTNV-1" source="Pu-JDG_D6I3IjvPYyL8J-13" target="Pu-JDG_D6I3IjvPYyL8J-40">
          <mxGeometry relative="1" as="geometry">
            <Array as="points">
              <mxPoint x="924" y="2598" />
            </Array>
          </mxGeometry>
        </mxCell>
        <mxCell id="Pu-JDG_D6I3IjvPYyL8J-132" value="" style="curved=1;startArrow=none;endArrow=block;exitX=0.55;exitY=0;entryX=0;entryY=0.5;rounded=0;" edge="1" parent="WIyWlLk6GJQsqaUBKTNV-1" source="Pu-JDG_D6I3IjvPYyL8J-9" target="Pu-JDG_D6I3IjvPYyL8J-14">
          <mxGeometry relative="1" as="geometry">
            <Array as="points">
              <mxPoint x="580" y="2536" />
            </Array>
          </mxGeometry>
        </mxCell>
        <mxCell id="Pu-JDG_D6I3IjvPYyL8J-133" value="" style="curved=1;startArrow=none;endArrow=block;exitX=0.9;exitY=1;entryX=0.47;entryY=1;rounded=0;" edge="1" parent="WIyWlLk6GJQsqaUBKTNV-1" source="Pu-JDG_D6I3IjvPYyL8J-14" target="Pu-JDG_D6I3IjvPYyL8J-36">
          <mxGeometry relative="1" as="geometry">
            <Array as="points">
              <mxPoint x="924" y="2578" />
              <mxPoint x="1301" y="2578" />
            </Array>
          </mxGeometry>
        </mxCell>
        <mxCell id="Pu-JDG_D6I3IjvPYyL8J-134" value="" style="curved=1;startArrow=none;endArrow=block;exitX=1;exitY=0.81;entryX=0.4;entryY=0;rounded=0;" edge="1" parent="WIyWlLk6GJQsqaUBKTNV-1" source="Pu-JDG_D6I3IjvPYyL8J-14" target="Pu-JDG_D6I3IjvPYyL8J-39">
          <mxGeometry relative="1" as="geometry">
            <Array as="points">
              <mxPoint x="924" y="2557" />
            </Array>
          </mxGeometry>
        </mxCell>
        <mxCell id="Pu-JDG_D6I3IjvPYyL8J-135" value="" style="curved=1;startArrow=none;endArrow=block;exitX=1;exitY=0.19;entryX=0.48;entryY=1;rounded=0;" edge="1" parent="WIyWlLk6GJQsqaUBKTNV-1" source="Pu-JDG_D6I3IjvPYyL8J-14" target="Pu-JDG_D6I3IjvPYyL8J-37">
          <mxGeometry relative="1" as="geometry">
            <Array as="points">
              <mxPoint x="924" y="2515" />
              <mxPoint x="1301" y="2515" />
            </Array>
          </mxGeometry>
        </mxCell>
        <mxCell id="Pu-JDG_D6I3IjvPYyL8J-136" value="" style="curved=1;startArrow=none;endArrow=block;exitX=0.66;exitY=1;entryX=0;entryY=0.5;rounded=0;" edge="1" parent="WIyWlLk6GJQsqaUBKTNV-1" source="Pu-JDG_D6I3IjvPYyL8J-0" target="Pu-JDG_D6I3IjvPYyL8J-15">
          <mxGeometry relative="1" as="geometry">
            <Array as="points">
              <mxPoint x="280" y="2235" />
            </Array>
          </mxGeometry>
        </mxCell>
        <mxCell id="Pu-JDG_D6I3IjvPYyL8J-137" value="" style="curved=1;startArrow=none;endArrow=block;exitX=0.57;exitY=1;entryX=0;entryY=0.5;rounded=0;" edge="1" parent="WIyWlLk6GJQsqaUBKTNV-1" source="Pu-JDG_D6I3IjvPYyL8J-15" target="Pu-JDG_D6I3IjvPYyL8J-16">
          <mxGeometry relative="1" as="geometry">
            <Array as="points">
              <mxPoint x="924" y="2453" />
            </Array>
          </mxGeometry>
        </mxCell>
        <mxCell id="Pu-JDG_D6I3IjvPYyL8J-138" value="" style="curved=1;startArrow=none;endArrow=block;exitX=1;exitY=0.8;entryX=0;entryY=0.07;rounded=0;" edge="1" parent="WIyWlLk6GJQsqaUBKTNV-1" source="Pu-JDG_D6I3IjvPYyL8J-16" target="Pu-JDG_D6I3IjvPYyL8J-47">
          <mxGeometry relative="1" as="geometry">
            <Array as="points">
              <mxPoint x="1301" y="2474" />
            </Array>
          </mxGeometry>
        </mxCell>
        <mxCell id="Pu-JDG_D6I3IjvPYyL8J-139" value="" style="curved=1;startArrow=none;endArrow=block;exitX=1;exitY=0.2;entryX=0.39;entryY=1;rounded=0;" edge="1" parent="WIyWlLk6GJQsqaUBKTNV-1" source="Pu-JDG_D6I3IjvPYyL8J-16" target="Pu-JDG_D6I3IjvPYyL8J-48">
          <mxGeometry relative="1" as="geometry">
            <Array as="points">
              <mxPoint x="1301" y="2432" />
            </Array>
          </mxGeometry>
        </mxCell>
        <mxCell id="Pu-JDG_D6I3IjvPYyL8J-140" value="" style="curved=1;startArrow=none;endArrow=block;exitX=0.56;exitY=1;entryX=0.45;entryY=1;rounded=0;" edge="1" parent="WIyWlLk6GJQsqaUBKTNV-1" source="Pu-JDG_D6I3IjvPYyL8J-48" target="Pu-JDG_D6I3IjvPYyL8J-50">
          <mxGeometry relative="1" as="geometry">
            <Array as="points">
              <mxPoint x="1616" y="2537" />
            </Array>
          </mxGeometry>
        </mxCell>
        <mxCell id="Pu-JDG_D6I3IjvPYyL8J-141" value="" style="curved=1;startArrow=none;endArrow=block;exitX=0.57;exitY=1;entryX=0.46;entryY=0;rounded=0;" edge="1" parent="WIyWlLk6GJQsqaUBKTNV-1" source="Pu-JDG_D6I3IjvPYyL8J-48" target="Pu-JDG_D6I3IjvPYyL8J-55">
          <mxGeometry relative="1" as="geometry">
            <Array as="points">
              <mxPoint x="1616" y="2517" />
            </Array>
          </mxGeometry>
        </mxCell>
        <mxCell id="Pu-JDG_D6I3IjvPYyL8J-142" value="" style="curved=1;startArrow=none;endArrow=block;exitX=0.59;exitY=0;entryX=0.43;entryY=1;rounded=0;" edge="1" parent="WIyWlLk6GJQsqaUBKTNV-1" source="Pu-JDG_D6I3IjvPYyL8J-48" target="Pu-JDG_D6I3IjvPYyL8J-51">
          <mxGeometry relative="1" as="geometry">
            <Array as="points">
              <mxPoint x="1616" y="2089" />
            </Array>
          </mxGeometry>
        </mxCell>
        <mxCell id="Pu-JDG_D6I3IjvPYyL8J-143" value="" style="curved=1;startArrow=none;endArrow=block;exitX=0.92;exitY=0;entryX=0;entryY=0.86;rounded=0;" edge="1" parent="WIyWlLk6GJQsqaUBKTNV-1" source="Pu-JDG_D6I3IjvPYyL8J-16" target="Pu-JDG_D6I3IjvPYyL8J-49">
          <mxGeometry relative="1" as="geometry">
            <Array as="points">
              <mxPoint x="1301" y="2411" />
            </Array>
          </mxGeometry>
        </mxCell>
        <mxCell id="Pu-JDG_D6I3IjvPYyL8J-144" value="" style="curved=1;startArrow=none;endArrow=block;exitX=0.64;exitY=1;entryX=0;entryY=0.5;rounded=0;" edge="1" parent="WIyWlLk6GJQsqaUBKTNV-1" source="Pu-JDG_D6I3IjvPYyL8J-15" target="Pu-JDG_D6I3IjvPYyL8J-17">
          <mxGeometry relative="1" as="geometry">
            <Array as="points">
              <mxPoint x="924" y="2349" />
            </Array>
          </mxGeometry>
        </mxCell>
        <mxCell id="Pu-JDG_D6I3IjvPYyL8J-145" value="" style="curved=1;startArrow=none;endArrow=block;exitX=0.89;exitY=1;entryX=0.46;entryY=1;rounded=0;" edge="1" parent="WIyWlLk6GJQsqaUBKTNV-1" source="Pu-JDG_D6I3IjvPYyL8J-17" target="Pu-JDG_D6I3IjvPYyL8J-36">
          <mxGeometry relative="1" as="geometry">
            <Array as="points">
              <mxPoint x="1301" y="2391" />
            </Array>
          </mxGeometry>
        </mxCell>
        <mxCell id="Pu-JDG_D6I3IjvPYyL8J-146" value="" style="curved=1;startArrow=none;endArrow=block;exitX=1;exitY=0.65;entryX=0.3;entryY=1;rounded=0;" edge="1" parent="WIyWlLk6GJQsqaUBKTNV-1" source="Pu-JDG_D6I3IjvPYyL8J-17" target="Pu-JDG_D6I3IjvPYyL8J-48">
          <mxGeometry relative="1" as="geometry">
            <Array as="points">
              <mxPoint x="1301" y="2359" />
            </Array>
          </mxGeometry>
        </mxCell>
        <mxCell id="Pu-JDG_D6I3IjvPYyL8J-147" value="" style="curved=1;startArrow=none;endArrow=block;exitX=1;exitY=0.01;entryX=0.18;entryY=0;rounded=0;" edge="1" parent="WIyWlLk6GJQsqaUBKTNV-1" source="Pu-JDG_D6I3IjvPYyL8J-17" target="Pu-JDG_D6I3IjvPYyL8J-49">
          <mxGeometry relative="1" as="geometry">
            <Array as="points">
              <mxPoint x="1301" y="2317" />
            </Array>
          </mxGeometry>
        </mxCell>
        <mxCell id="Pu-JDG_D6I3IjvPYyL8J-148" value="" style="curved=1;startArrow=none;endArrow=block;exitX=1;exitY=0.5;entryX=0;entryY=0.5;rounded=0;" edge="1" parent="WIyWlLk6GJQsqaUBKTNV-1" source="Pu-JDG_D6I3IjvPYyL8J-15" target="Pu-JDG_D6I3IjvPYyL8J-18">
          <mxGeometry relative="1" as="geometry">
            <Array as="points" />
          </mxGeometry>
        </mxCell>
        <mxCell id="Pu-JDG_D6I3IjvPYyL8J-149" value="" style="curved=1;startArrow=none;endArrow=block;exitX=0.83;exitY=1;entryX=0.44;entryY=1;rounded=0;" edge="1" parent="WIyWlLk6GJQsqaUBKTNV-1" source="Pu-JDG_D6I3IjvPYyL8J-18" target="Pu-JDG_D6I3IjvPYyL8J-36">
          <mxGeometry relative="1" as="geometry">
            <Array as="points">
              <mxPoint x="1301" y="2287" />
            </Array>
          </mxGeometry>
        </mxCell>
        <mxCell id="Pu-JDG_D6I3IjvPYyL8J-150" value="" style="curved=1;startArrow=none;endArrow=block;exitX=1;exitY=0.18;entryX=0.24;entryY=0;rounded=0;" edge="1" parent="WIyWlLk6GJQsqaUBKTNV-1" source="Pu-JDG_D6I3IjvPYyL8J-18" target="Pu-JDG_D6I3IjvPYyL8J-48">
          <mxGeometry relative="1" as="geometry">
            <Array as="points">
              <mxPoint x="1301" y="2213" />
            </Array>
          </mxGeometry>
        </mxCell>
        <mxCell id="Pu-JDG_D6I3IjvPYyL8J-151" value="" style="curved=1;startArrow=none;endArrow=block;exitX=0.91;exitY=0;entryX=0.39;entryY=0;rounded=0;" edge="1" parent="WIyWlLk6GJQsqaUBKTNV-1" source="Pu-JDG_D6I3IjvPYyL8J-18" target="Pu-JDG_D6I3IjvPYyL8J-49">
          <mxGeometry relative="1" as="geometry">
            <Array as="points">
              <mxPoint x="1301" y="2193" />
            </Array>
          </mxGeometry>
        </mxCell>
        <mxCell id="Pu-JDG_D6I3IjvPYyL8J-152" value="" style="curved=1;startArrow=none;endArrow=block;exitX=0.66;exitY=0;entryX=0;entryY=0.5;rounded=0;" edge="1" parent="WIyWlLk6GJQsqaUBKTNV-1" source="Pu-JDG_D6I3IjvPYyL8J-15" target="Pu-JDG_D6I3IjvPYyL8J-19">
          <mxGeometry relative="1" as="geometry">
            <Array as="points">
              <mxPoint x="924" y="2131" />
            </Array>
          </mxGeometry>
        </mxCell>
        <mxCell id="Pu-JDG_D6I3IjvPYyL8J-153" value="" style="curved=1;startArrow=none;endArrow=block;exitX=0.88;exitY=1;entryX=0.42;entryY=1;rounded=0;" edge="1" parent="WIyWlLk6GJQsqaUBKTNV-1" source="Pu-JDG_D6I3IjvPYyL8J-19" target="Pu-JDG_D6I3IjvPYyL8J-36">
          <mxGeometry relative="1" as="geometry">
            <Array as="points">
              <mxPoint x="1301" y="2173" />
            </Array>
          </mxGeometry>
        </mxCell>
        <mxCell id="Pu-JDG_D6I3IjvPYyL8J-154" value="" style="curved=1;startArrow=none;endArrow=block;exitX=1;exitY=0.5;entryX=0.38;entryY=0;rounded=0;" edge="1" parent="WIyWlLk6GJQsqaUBKTNV-1" source="Pu-JDG_D6I3IjvPYyL8J-19" target="Pu-JDG_D6I3IjvPYyL8J-48">
          <mxGeometry relative="1" as="geometry">
            <Array as="points">
              <mxPoint x="1301" y="2131" />
            </Array>
          </mxGeometry>
        </mxCell>
        <mxCell id="Pu-JDG_D6I3IjvPYyL8J-155" value="" style="curved=1;startArrow=none;endArrow=block;exitX=0.88;exitY=0;entryX=0.43;entryY=0;rounded=0;" edge="1" parent="WIyWlLk6GJQsqaUBKTNV-1" source="Pu-JDG_D6I3IjvPYyL8J-19" target="Pu-JDG_D6I3IjvPYyL8J-49">
          <mxGeometry relative="1" as="geometry">
            <Array as="points">
              <mxPoint x="1301" y="2089" />
            </Array>
          </mxGeometry>
        </mxCell>
        <mxCell id="Pu-JDG_D6I3IjvPYyL8J-156" value="" style="curved=1;startArrow=none;endArrow=block;exitX=0.58;exitY=0;entryX=0;entryY=0.5;rounded=0;" edge="1" parent="WIyWlLk6GJQsqaUBKTNV-1" source="Pu-JDG_D6I3IjvPYyL8J-15" target="Pu-JDG_D6I3IjvPYyL8J-20">
          <mxGeometry relative="1" as="geometry">
            <Array as="points">
              <mxPoint x="924" y="2027" />
            </Array>
          </mxGeometry>
        </mxCell>
        <mxCell id="Pu-JDG_D6I3IjvPYyL8J-157" value="" style="curved=1;startArrow=none;endArrow=block;exitX=0.89;exitY=1;entryX=0.38;entryY=1;rounded=0;" edge="1" parent="WIyWlLk6GJQsqaUBKTNV-1" source="Pu-JDG_D6I3IjvPYyL8J-20" target="Pu-JDG_D6I3IjvPYyL8J-36">
          <mxGeometry relative="1" as="geometry">
            <Array as="points">
              <mxPoint x="1301" y="2069" />
            </Array>
          </mxGeometry>
        </mxCell>
        <mxCell id="Pu-JDG_D6I3IjvPYyL8J-158" value="" style="curved=1;startArrow=none;endArrow=block;exitX=1;exitY=0.5;entryX=0.43;entryY=0;rounded=0;" edge="1" parent="WIyWlLk6GJQsqaUBKTNV-1" source="Pu-JDG_D6I3IjvPYyL8J-20" target="Pu-JDG_D6I3IjvPYyL8J-48">
          <mxGeometry relative="1" as="geometry">
            <Array as="points">
              <mxPoint x="1301" y="2027" />
            </Array>
          </mxGeometry>
        </mxCell>
        <mxCell id="Pu-JDG_D6I3IjvPYyL8J-159" value="" style="curved=1;startArrow=none;endArrow=block;exitX=0.89;exitY=0;entryX=0.46;entryY=1;rounded=0;" edge="1" parent="WIyWlLk6GJQsqaUBKTNV-1" source="Pu-JDG_D6I3IjvPYyL8J-20" target="Pu-JDG_D6I3IjvPYyL8J-37">
          <mxGeometry relative="1" as="geometry">
            <Array as="points">
              <mxPoint x="1301" y="1985" />
            </Array>
          </mxGeometry>
        </mxCell>
        <mxCell id="Pu-JDG_D6I3IjvPYyL8J-160" value="" style="curved=1;startArrow=none;endArrow=block;exitX=0.54;exitY=0;entryX=0;entryY=0.5;rounded=0;" edge="1" parent="WIyWlLk6GJQsqaUBKTNV-1" source="Pu-JDG_D6I3IjvPYyL8J-0" target="Pu-JDG_D6I3IjvPYyL8J-21">
          <mxGeometry relative="1" as="geometry">
            <Array as="points">
              <mxPoint x="280" y="1695" />
            </Array>
          </mxGeometry>
        </mxCell>
        <mxCell id="Pu-JDG_D6I3IjvPYyL8J-161" value="" style="curved=1;startArrow=none;endArrow=block;exitX=0.57;exitY=1;entryX=0;entryY=0.5;rounded=0;" edge="1" parent="WIyWlLk6GJQsqaUBKTNV-1" source="Pu-JDG_D6I3IjvPYyL8J-21" target="Pu-JDG_D6I3IjvPYyL8J-22">
          <mxGeometry relative="1" as="geometry">
            <Array as="points">
              <mxPoint x="924" y="1923" />
            </Array>
          </mxGeometry>
        </mxCell>
        <mxCell id="Pu-JDG_D6I3IjvPYyL8J-162" value="" style="curved=1;startArrow=none;endArrow=block;exitX=0.91;exitY=1;entryX=0.37;entryY=0;rounded=0;" edge="1" parent="WIyWlLk6GJQsqaUBKTNV-1" source="Pu-JDG_D6I3IjvPYyL8J-22" target="Pu-JDG_D6I3IjvPYyL8J-44">
          <mxGeometry relative="1" as="geometry">
            <Array as="points">
              <mxPoint x="1301" y="1965" />
            </Array>
          </mxGeometry>
        </mxCell>
        <mxCell id="Pu-JDG_D6I3IjvPYyL8J-163" value="" style="curved=1;startArrow=none;endArrow=block;exitX=1;exitY=0.5;entryX=0.44;entryY=1;rounded=0;" edge="1" parent="WIyWlLk6GJQsqaUBKTNV-1" source="Pu-JDG_D6I3IjvPYyL8J-22" target="Pu-JDG_D6I3IjvPYyL8J-45">
          <mxGeometry relative="1" as="geometry">
            <Array as="points">
              <mxPoint x="1301" y="1923" />
            </Array>
          </mxGeometry>
        </mxCell>
        <mxCell id="Pu-JDG_D6I3IjvPYyL8J-164" value="" style="curved=1;startArrow=none;endArrow=block;exitX=0.54;exitY=1;entryX=0.11;entryY=0;rounded=0;" edge="1" parent="WIyWlLk6GJQsqaUBKTNV-1" source="Pu-JDG_D6I3IjvPYyL8J-45" target="Pu-JDG_D6I3IjvPYyL8J-50">
          <mxGeometry relative="1" as="geometry">
            <Array as="points">
              <mxPoint x="1616" y="2069" />
            </Array>
          </mxGeometry>
        </mxCell>
        <mxCell id="Pu-JDG_D6I3IjvPYyL8J-165" value="" style="curved=1;startArrow=none;endArrow=block;exitX=1;exitY=0.07;entryX=0.45;entryY=1;rounded=0;" edge="1" parent="WIyWlLk6GJQsqaUBKTNV-1" source="Pu-JDG_D6I3IjvPYyL8J-45" target="Pu-JDG_D6I3IjvPYyL8J-54">
          <mxGeometry relative="1" as="geometry">
            <Array as="points">
              <mxPoint x="1616" y="1625" />
            </Array>
          </mxGeometry>
        </mxCell>
        <mxCell id="Pu-JDG_D6I3IjvPYyL8J-166" value="" style="curved=1;startArrow=none;endArrow=block;exitX=0.54;exitY=0;entryX=0.43;entryY=0;rounded=0;" edge="1" parent="WIyWlLk6GJQsqaUBKTNV-1" source="Pu-JDG_D6I3IjvPYyL8J-45" target="Pu-JDG_D6I3IjvPYyL8J-51">
          <mxGeometry relative="1" as="geometry">
            <Array as="points">
              <mxPoint x="1616" y="1209" />
            </Array>
          </mxGeometry>
        </mxCell>
        <mxCell id="Pu-JDG_D6I3IjvPYyL8J-167" value="" style="curved=1;startArrow=none;endArrow=block;exitX=0.91;exitY=0;entryX=0.34;entryY=1;rounded=0;" edge="1" parent="WIyWlLk6GJQsqaUBKTNV-1" source="Pu-JDG_D6I3IjvPYyL8J-22" target="Pu-JDG_D6I3IjvPYyL8J-46">
          <mxGeometry relative="1" as="geometry">
            <Array as="points">
              <mxPoint x="1301" y="1881" />
            </Array>
          </mxGeometry>
        </mxCell>
        <mxCell id="Pu-JDG_D6I3IjvPYyL8J-168" value="" style="curved=1;startArrow=none;endArrow=block;exitX=0.64;exitY=1;entryX=0;entryY=0.5;rounded=0;" edge="1" parent="WIyWlLk6GJQsqaUBKTNV-1" source="Pu-JDG_D6I3IjvPYyL8J-21" target="Pu-JDG_D6I3IjvPYyL8J-23">
          <mxGeometry relative="1" as="geometry">
            <Array as="points">
              <mxPoint x="924" y="1809" />
            </Array>
          </mxGeometry>
        </mxCell>
        <mxCell id="Pu-JDG_D6I3IjvPYyL8J-169" value="" style="curved=1;startArrow=none;endArrow=block;exitX=0.8;exitY=1;entryX=0;entryY=0.5;rounded=0;" edge="1" parent="WIyWlLk6GJQsqaUBKTNV-1" source="Pu-JDG_D6I3IjvPYyL8J-23" target="Pu-JDG_D6I3IjvPYyL8J-36">
          <mxGeometry relative="1" as="geometry">
            <Array as="points">
              <mxPoint x="1301" y="1861" />
            </Array>
          </mxGeometry>
        </mxCell>
        <mxCell id="Pu-JDG_D6I3IjvPYyL8J-170" value="" style="curved=1;startArrow=none;endArrow=block;exitX=1;exitY=0.5;entryX=0.4;entryY=1;rounded=0;" edge="1" parent="WIyWlLk6GJQsqaUBKTNV-1" source="Pu-JDG_D6I3IjvPYyL8J-23" target="Pu-JDG_D6I3IjvPYyL8J-45">
          <mxGeometry relative="1" as="geometry">
            <Array as="points">
              <mxPoint x="1301" y="1809" />
            </Array>
          </mxGeometry>
        </mxCell>
        <mxCell id="Pu-JDG_D6I3IjvPYyL8J-171" value="" style="curved=1;startArrow=none;endArrow=block;exitX=0.8;exitY=0;entryX=0;entryY=0.5;rounded=0;" edge="1" parent="WIyWlLk6GJQsqaUBKTNV-1" source="Pu-JDG_D6I3IjvPYyL8J-23" target="Pu-JDG_D6I3IjvPYyL8J-46">
          <mxGeometry relative="1" as="geometry">
            <Array as="points">
              <mxPoint x="1301" y="1757" />
            </Array>
          </mxGeometry>
        </mxCell>
        <mxCell id="Pu-JDG_D6I3IjvPYyL8J-172" value="" style="curved=1;startArrow=none;endArrow=block;exitX=1;exitY=0.19;entryX=0;entryY=0.5;rounded=0;" edge="1" parent="WIyWlLk6GJQsqaUBKTNV-1" source="Pu-JDG_D6I3IjvPYyL8J-21" target="Pu-JDG_D6I3IjvPYyL8J-24">
          <mxGeometry relative="1" as="geometry">
            <Array as="points">
              <mxPoint x="924" y="1675" />
            </Array>
          </mxGeometry>
        </mxCell>
        <mxCell id="Pu-JDG_D6I3IjvPYyL8J-173" value="" style="curved=1;startArrow=none;endArrow=block;exitX=0.82;exitY=1;entryX=0.32;entryY=0;rounded=0;" edge="1" parent="WIyWlLk6GJQsqaUBKTNV-1" source="Pu-JDG_D6I3IjvPYyL8J-24" target="Pu-JDG_D6I3IjvPYyL8J-36">
          <mxGeometry relative="1" as="geometry">
            <Array as="points">
              <mxPoint x="1301" y="1727" />
            </Array>
          </mxGeometry>
        </mxCell>
        <mxCell id="Pu-JDG_D6I3IjvPYyL8J-174" value="" style="curved=1;startArrow=none;endArrow=block;exitX=1;exitY=0.17;entryX=0;entryY=0.5;rounded=0;" edge="1" parent="WIyWlLk6GJQsqaUBKTNV-1" source="Pu-JDG_D6I3IjvPYyL8J-24" target="Pu-JDG_D6I3IjvPYyL8J-45">
          <mxGeometry relative="1" as="geometry">
            <Array as="points">
              <mxPoint x="1301" y="1653" />
            </Array>
          </mxGeometry>
        </mxCell>
        <mxCell id="Pu-JDG_D6I3IjvPYyL8J-175" value="" style="curved=1;startArrow=none;endArrow=block;exitX=0.89;exitY=0;entryX=0.34;entryY=0;rounded=0;" edge="1" parent="WIyWlLk6GJQsqaUBKTNV-1" source="Pu-JDG_D6I3IjvPYyL8J-24" target="Pu-JDG_D6I3IjvPYyL8J-46">
          <mxGeometry relative="1" as="geometry">
            <Array as="points">
              <mxPoint x="1301" y="1633" />
            </Array>
          </mxGeometry>
        </mxCell>
        <mxCell id="Pu-JDG_D6I3IjvPYyL8J-176" value="" style="curved=1;startArrow=none;endArrow=block;exitX=0.63;exitY=0;entryX=0;entryY=0.5;rounded=0;" edge="1" parent="WIyWlLk6GJQsqaUBKTNV-1" source="Pu-JDG_D6I3IjvPYyL8J-21" target="Pu-JDG_D6I3IjvPYyL8J-25">
          <mxGeometry relative="1" as="geometry">
            <Array as="points">
              <mxPoint x="924" y="1571" />
            </Array>
          </mxGeometry>
        </mxCell>
        <mxCell id="Pu-JDG_D6I3IjvPYyL8J-177" value="" style="curved=1;startArrow=none;endArrow=block;exitX=0.87;exitY=1;entryX=0.4;entryY=0;rounded=0;" edge="1" parent="WIyWlLk6GJQsqaUBKTNV-1" source="Pu-JDG_D6I3IjvPYyL8J-25" target="Pu-JDG_D6I3IjvPYyL8J-36">
          <mxGeometry relative="1" as="geometry">
            <Array as="points">
              <mxPoint x="1301" y="1613" />
            </Array>
          </mxGeometry>
        </mxCell>
        <mxCell id="Pu-JDG_D6I3IjvPYyL8J-178" value="" style="curved=1;startArrow=none;endArrow=block;exitX=1;exitY=0.5;entryX=0.3;entryY=0;rounded=0;" edge="1" parent="WIyWlLk6GJQsqaUBKTNV-1" source="Pu-JDG_D6I3IjvPYyL8J-25" target="Pu-JDG_D6I3IjvPYyL8J-45">
          <mxGeometry relative="1" as="geometry">
            <Array as="points">
              <mxPoint x="1301" y="1571" />
            </Array>
          </mxGeometry>
        </mxCell>
        <mxCell id="Pu-JDG_D6I3IjvPYyL8J-179" value="" style="curved=1;startArrow=none;endArrow=block;exitX=0.87;exitY=0;entryX=0.41;entryY=0;rounded=0;" edge="1" parent="WIyWlLk6GJQsqaUBKTNV-1" source="Pu-JDG_D6I3IjvPYyL8J-25" target="Pu-JDG_D6I3IjvPYyL8J-46">
          <mxGeometry relative="1" as="geometry">
            <Array as="points">
              <mxPoint x="1301" y="1529" />
            </Array>
          </mxGeometry>
        </mxCell>
        <mxCell id="Pu-JDG_D6I3IjvPYyL8J-180" value="" style="curved=1;startArrow=none;endArrow=block;exitX=0.57;exitY=0;entryX=0;entryY=0.5;rounded=0;" edge="1" parent="WIyWlLk6GJQsqaUBKTNV-1" source="Pu-JDG_D6I3IjvPYyL8J-21" target="Pu-JDG_D6I3IjvPYyL8J-26">
          <mxGeometry relative="1" as="geometry">
            <Array as="points">
              <mxPoint x="924" y="1467" />
            </Array>
          </mxGeometry>
        </mxCell>
        <mxCell id="Pu-JDG_D6I3IjvPYyL8J-181" value="" style="curved=1;startArrow=none;endArrow=block;exitX=0.88;exitY=1;entryX=0.43;entryY=0;rounded=0;" edge="1" parent="WIyWlLk6GJQsqaUBKTNV-1" source="Pu-JDG_D6I3IjvPYyL8J-26" target="Pu-JDG_D6I3IjvPYyL8J-36">
          <mxGeometry relative="1" as="geometry">
            <Array as="points">
              <mxPoint x="1301" y="1509" />
            </Array>
          </mxGeometry>
        </mxCell>
        <mxCell id="Pu-JDG_D6I3IjvPYyL8J-182" value="" style="curved=1;startArrow=none;endArrow=block;exitX=1;exitY=0.84;entryX=0.4;entryY=0;rounded=0;" edge="1" parent="WIyWlLk6GJQsqaUBKTNV-1" source="Pu-JDG_D6I3IjvPYyL8J-26" target="Pu-JDG_D6I3IjvPYyL8J-45">
          <mxGeometry relative="1" as="geometry">
            <Array as="points">
              <mxPoint x="1301" y="1489" />
            </Array>
          </mxGeometry>
        </mxCell>
        <mxCell id="Pu-JDG_D6I3IjvPYyL8J-183" value="" style="curved=1;startArrow=none;endArrow=block;exitX=1;exitY=0.19;entryX=0;entryY=0.5;rounded=0;" edge="1" parent="WIyWlLk6GJQsqaUBKTNV-1" source="Pu-JDG_D6I3IjvPYyL8J-26" target="Pu-JDG_D6I3IjvPYyL8J-37">
          <mxGeometry relative="1" as="geometry">
            <Array as="points">
              <mxPoint x="1301" y="1447" />
            </Array>
          </mxGeometry>
        </mxCell>
        <mxCell id="Pu-JDG_D6I3IjvPYyL8J-184" value="" style="curved=1;startArrow=none;endArrow=block;exitX=0.52;exitY=0;entryX=0;entryY=0.5;rounded=0;" edge="1" parent="WIyWlLk6GJQsqaUBKTNV-1" source="Pu-JDG_D6I3IjvPYyL8J-0" target="Pu-JDG_D6I3IjvPYyL8J-27">
          <mxGeometry relative="1" as="geometry">
            <Array as="points">
              <mxPoint x="280" y="1105" />
            </Array>
          </mxGeometry>
        </mxCell>
        <mxCell id="Pu-JDG_D6I3IjvPYyL8J-185" value="" style="curved=1;startArrow=none;endArrow=block;exitX=0.57;exitY=1;entryX=0;entryY=0.5;rounded=0;" edge="1" parent="WIyWlLk6GJQsqaUBKTNV-1" source="Pu-JDG_D6I3IjvPYyL8J-27" target="Pu-JDG_D6I3IjvPYyL8J-28">
          <mxGeometry relative="1" as="geometry">
            <Array as="points">
              <mxPoint x="924" y="1323" />
            </Array>
          </mxGeometry>
        </mxCell>
        <mxCell id="Pu-JDG_D6I3IjvPYyL8J-186" value="" style="curved=1;startArrow=none;endArrow=block;exitX=1;exitY=0.8;entryX=0.33;entryY=1;rounded=0;" edge="1" parent="WIyWlLk6GJQsqaUBKTNV-1" source="Pu-JDG_D6I3IjvPYyL8J-28" target="Pu-JDG_D6I3IjvPYyL8J-41">
          <mxGeometry relative="1" as="geometry">
            <Array as="points">
              <mxPoint x="1301" y="1343" />
            </Array>
          </mxGeometry>
        </mxCell>
        <mxCell id="Pu-JDG_D6I3IjvPYyL8J-187" value="" style="curved=1;startArrow=none;endArrow=block;exitX=1;exitY=0.18;entryX=0.45;entryY=1;rounded=0;" edge="1" parent="WIyWlLk6GJQsqaUBKTNV-1" source="Pu-JDG_D6I3IjvPYyL8J-28" target="Pu-JDG_D6I3IjvPYyL8J-42">
          <mxGeometry relative="1" as="geometry">
            <Array as="points">
              <mxPoint x="1301" y="1301" />
            </Array>
          </mxGeometry>
        </mxCell>
        <mxCell id="Pu-JDG_D6I3IjvPYyL8J-188" value="" style="curved=1;startArrow=none;endArrow=block;exitX=0.58;exitY=1;entryX=0.48;entryY=0;rounded=0;" edge="1" parent="WIyWlLk6GJQsqaUBKTNV-1" source="Pu-JDG_D6I3IjvPYyL8J-42" target="Pu-JDG_D6I3IjvPYyL8J-50">
          <mxGeometry relative="1" as="geometry">
            <Array as="points">
              <mxPoint x="1616" y="1189" />
            </Array>
          </mxGeometry>
        </mxCell>
        <mxCell id="Pu-JDG_D6I3IjvPYyL8J-189" value="" style="curved=1;startArrow=none;endArrow=block;exitX=0.57;exitY=0;entryX=0.43;entryY=1;rounded=0;" edge="1" parent="WIyWlLk6GJQsqaUBKTNV-1" source="Pu-JDG_D6I3IjvPYyL8J-42" target="Pu-JDG_D6I3IjvPYyL8J-53">
          <mxGeometry relative="1" as="geometry">
            <Array as="points">
              <mxPoint x="1616" y="773" />
            </Array>
          </mxGeometry>
        </mxCell>
        <mxCell id="Pu-JDG_D6I3IjvPYyL8J-190" value="" style="curved=1;startArrow=none;endArrow=block;exitX=0.56;exitY=0;entryX=0.47;entryY=0;rounded=0;" edge="1" parent="WIyWlLk6GJQsqaUBKTNV-1" source="Pu-JDG_D6I3IjvPYyL8J-42" target="Pu-JDG_D6I3IjvPYyL8J-51">
          <mxGeometry relative="1" as="geometry">
            <Array as="points">
              <mxPoint x="1616" y="753" />
            </Array>
          </mxGeometry>
        </mxCell>
        <mxCell id="Pu-JDG_D6I3IjvPYyL8J-191" value="" style="curved=1;startArrow=none;endArrow=block;exitX=0.91;exitY=0;entryX=0.39;entryY=1;rounded=0;" edge="1" parent="WIyWlLk6GJQsqaUBKTNV-1" source="Pu-JDG_D6I3IjvPYyL8J-28" target="Pu-JDG_D6I3IjvPYyL8J-43">
          <mxGeometry relative="1" as="geometry">
            <Array as="points">
              <mxPoint x="1301" y="1281" />
            </Array>
          </mxGeometry>
        </mxCell>
        <mxCell id="Pu-JDG_D6I3IjvPYyL8J-192" value="" style="curved=1;startArrow=none;endArrow=block;exitX=0.64;exitY=1;entryX=0;entryY=0.5;rounded=0;" edge="1" parent="WIyWlLk6GJQsqaUBKTNV-1" source="Pu-JDG_D6I3IjvPYyL8J-27" target="Pu-JDG_D6I3IjvPYyL8J-29">
          <mxGeometry relative="1" as="geometry">
            <Array as="points">
              <mxPoint x="924" y="1219" />
            </Array>
          </mxGeometry>
        </mxCell>
        <mxCell id="Pu-JDG_D6I3IjvPYyL8J-193" value="" style="curved=1;startArrow=none;endArrow=block;exitX=0.87;exitY=1;entryX=0.46;entryY=0;rounded=0;" edge="1" parent="WIyWlLk6GJQsqaUBKTNV-1" source="Pu-JDG_D6I3IjvPYyL8J-29" target="Pu-JDG_D6I3IjvPYyL8J-36">
          <mxGeometry relative="1" as="geometry">
            <Array as="points">
              <mxPoint x="1301" y="1261" />
            </Array>
          </mxGeometry>
        </mxCell>
        <mxCell id="Pu-JDG_D6I3IjvPYyL8J-194" value="" style="curved=1;startArrow=none;endArrow=block;exitX=1;exitY=0.66;entryX=0.43;entryY=1;rounded=0;" edge="1" parent="WIyWlLk6GJQsqaUBKTNV-1" source="Pu-JDG_D6I3IjvPYyL8J-29" target="Pu-JDG_D6I3IjvPYyL8J-42">
          <mxGeometry relative="1" as="geometry">
            <Array as="points">
              <mxPoint x="1301" y="1229" />
            </Array>
          </mxGeometry>
        </mxCell>
        <mxCell id="Pu-JDG_D6I3IjvPYyL8J-195" value="" style="curved=1;startArrow=none;endArrow=block;exitX=0.99;exitY=0;entryX=0.26;entryY=1;rounded=0;" edge="1" parent="WIyWlLk6GJQsqaUBKTNV-1" source="Pu-JDG_D6I3IjvPYyL8J-29" target="Pu-JDG_D6I3IjvPYyL8J-43">
          <mxGeometry relative="1" as="geometry">
            <Array as="points">
              <mxPoint x="1301" y="1187" />
            </Array>
          </mxGeometry>
        </mxCell>
        <mxCell id="Pu-JDG_D6I3IjvPYyL8J-196" value="" style="curved=1;startArrow=none;endArrow=block;exitX=1;exitY=0.5;entryX=0;entryY=0.5;rounded=0;" edge="1" parent="WIyWlLk6GJQsqaUBKTNV-1" source="Pu-JDG_D6I3IjvPYyL8J-27" target="Pu-JDG_D6I3IjvPYyL8J-30">
          <mxGeometry relative="1" as="geometry">
            <Array as="points" />
          </mxGeometry>
        </mxCell>
        <mxCell id="Pu-JDG_D6I3IjvPYyL8J-197" value="" style="curved=1;startArrow=none;endArrow=block;exitX=0.82;exitY=1;entryX=0.47;entryY=0;rounded=0;" edge="1" parent="WIyWlLk6GJQsqaUBKTNV-1" source="Pu-JDG_D6I3IjvPYyL8J-30" target="Pu-JDG_D6I3IjvPYyL8J-36">
          <mxGeometry relative="1" as="geometry">
            <Array as="points">
              <mxPoint x="1301" y="1157" />
            </Array>
          </mxGeometry>
        </mxCell>
        <mxCell id="Pu-JDG_D6I3IjvPYyL8J-198" value="" style="curved=1;startArrow=none;endArrow=block;exitX=1;exitY=0.17;entryX=0.3;entryY=1;rounded=0;" edge="1" parent="WIyWlLk6GJQsqaUBKTNV-1" source="Pu-JDG_D6I3IjvPYyL8J-30" target="Pu-JDG_D6I3IjvPYyL8J-42">
          <mxGeometry relative="1" as="geometry">
            <Array as="points">
              <mxPoint x="1301" y="1083" />
            </Array>
          </mxGeometry>
        </mxCell>
        <mxCell id="Pu-JDG_D6I3IjvPYyL8J-199" value="" style="curved=1;startArrow=none;endArrow=block;exitX=0.89;exitY=0;entryX=0.03;entryY=0;rounded=0;" edge="1" parent="WIyWlLk6GJQsqaUBKTNV-1" source="Pu-JDG_D6I3IjvPYyL8J-30" target="Pu-JDG_D6I3IjvPYyL8J-43">
          <mxGeometry relative="1" as="geometry">
            <Array as="points">
              <mxPoint x="1301" y="1063" />
            </Array>
          </mxGeometry>
        </mxCell>
        <mxCell id="Pu-JDG_D6I3IjvPYyL8J-200" value="" style="curved=1;startArrow=none;endArrow=block;exitX=0.65;exitY=0;entryX=0;entryY=0.5;rounded=0;" edge="1" parent="WIyWlLk6GJQsqaUBKTNV-1" source="Pu-JDG_D6I3IjvPYyL8J-27" target="Pu-JDG_D6I3IjvPYyL8J-31">
          <mxGeometry relative="1" as="geometry">
            <Array as="points">
              <mxPoint x="924" y="1001" />
            </Array>
          </mxGeometry>
        </mxCell>
        <mxCell id="Pu-JDG_D6I3IjvPYyL8J-201" value="" style="curved=1;startArrow=none;endArrow=block;exitX=0.87;exitY=1;entryX=0.47;entryY=0;rounded=0;" edge="1" parent="WIyWlLk6GJQsqaUBKTNV-1" source="Pu-JDG_D6I3IjvPYyL8J-31" target="Pu-JDG_D6I3IjvPYyL8J-36">
          <mxGeometry relative="1" as="geometry">
            <Array as="points">
              <mxPoint x="1301" y="1043" />
            </Array>
          </mxGeometry>
        </mxCell>
        <mxCell id="Pu-JDG_D6I3IjvPYyL8J-202" value="" style="curved=1;startArrow=none;endArrow=block;exitX=1;exitY=0.5;entryX=0;entryY=0.5;rounded=0;" edge="1" parent="WIyWlLk6GJQsqaUBKTNV-1" source="Pu-JDG_D6I3IjvPYyL8J-31" target="Pu-JDG_D6I3IjvPYyL8J-42">
          <mxGeometry relative="1" as="geometry">
            <Array as="points" />
          </mxGeometry>
        </mxCell>
        <mxCell id="Pu-JDG_D6I3IjvPYyL8J-203" value="" style="curved=1;startArrow=none;endArrow=block;exitX=0.87;exitY=0;entryX=0.36;entryY=0;rounded=0;" edge="1" parent="WIyWlLk6GJQsqaUBKTNV-1" source="Pu-JDG_D6I3IjvPYyL8J-31" target="Pu-JDG_D6I3IjvPYyL8J-43">
          <mxGeometry relative="1" as="geometry">
            <Array as="points">
              <mxPoint x="1301" y="959" />
            </Array>
          </mxGeometry>
        </mxCell>
        <mxCell id="Pu-JDG_D6I3IjvPYyL8J-204" value="" style="curved=1;startArrow=none;endArrow=block;exitX=0.57;exitY=0;entryX=0;entryY=0.5;rounded=0;" edge="1" parent="WIyWlLk6GJQsqaUBKTNV-1" source="Pu-JDG_D6I3IjvPYyL8J-27" target="Pu-JDG_D6I3IjvPYyL8J-32">
          <mxGeometry relative="1" as="geometry">
            <Array as="points">
              <mxPoint x="924" y="897" />
            </Array>
          </mxGeometry>
        </mxCell>
        <mxCell id="Pu-JDG_D6I3IjvPYyL8J-205" value="" style="curved=1;startArrow=none;endArrow=block;exitX=0.88;exitY=1;entryX=0.47;entryY=0;rounded=0;" edge="1" parent="WIyWlLk6GJQsqaUBKTNV-1" source="Pu-JDG_D6I3IjvPYyL8J-32" target="Pu-JDG_D6I3IjvPYyL8J-36">
          <mxGeometry relative="1" as="geometry">
            <Array as="points">
              <mxPoint x="1301" y="939" />
            </Array>
          </mxGeometry>
        </mxCell>
        <mxCell id="Pu-JDG_D6I3IjvPYyL8J-206" value="" style="curved=1;startArrow=none;endArrow=block;exitX=1;exitY=0.5;entryX=0.34;entryY=0;rounded=0;" edge="1" parent="WIyWlLk6GJQsqaUBKTNV-1" source="Pu-JDG_D6I3IjvPYyL8J-32" target="Pu-JDG_D6I3IjvPYyL8J-42">
          <mxGeometry relative="1" as="geometry">
            <Array as="points">
              <mxPoint x="1301" y="897" />
            </Array>
          </mxGeometry>
        </mxCell>
        <mxCell id="Pu-JDG_D6I3IjvPYyL8J-207" value="" style="curved=1;startArrow=none;endArrow=block;exitX=0.88;exitY=0;entryX=0.46;entryY=0;rounded=0;" edge="1" parent="WIyWlLk6GJQsqaUBKTNV-1" source="Pu-JDG_D6I3IjvPYyL8J-32" target="Pu-JDG_D6I3IjvPYyL8J-37">
          <mxGeometry relative="1" as="geometry">
            <Array as="points">
              <mxPoint x="1301" y="855" />
            </Array>
          </mxGeometry>
        </mxCell>
        <mxCell id="Pu-JDG_D6I3IjvPYyL8J-208" value="" style="curved=1;startArrow=none;endArrow=block;exitX=0.51;exitY=0;entryX=0;entryY=0.5;rounded=0;" edge="1" parent="WIyWlLk6GJQsqaUBKTNV-1" source="Pu-JDG_D6I3IjvPYyL8J-0" target="Pu-JDG_D6I3IjvPYyL8J-62">
          <mxGeometry relative="1" as="geometry">
            <Array as="points">
              <mxPoint x="280" y="555" />
            </Array>
          </mxGeometry>
        </mxCell>
        <mxCell id="Pu-JDG_D6I3IjvPYyL8J-209" value="" style="curved=1;startArrow=none;endArrow=block;exitX=0.61;exitY=1;entryX=0;entryY=0.5;rounded=0;" edge="1" parent="WIyWlLk6GJQsqaUBKTNV-1" source="Pu-JDG_D6I3IjvPYyL8J-62" target="Pu-JDG_D6I3IjvPYyL8J-63">
          <mxGeometry relative="1" as="geometry">
            <Array as="points">
              <mxPoint x="924" y="783" />
            </Array>
          </mxGeometry>
        </mxCell>
        <mxCell id="Pu-JDG_D6I3IjvPYyL8J-210" value="" style="curved=1;startArrow=none;endArrow=block;exitX=1;exitY=0.96;entryX=0;entryY=0.6;rounded=0;" edge="1" parent="WIyWlLk6GJQsqaUBKTNV-1" source="Pu-JDG_D6I3IjvPYyL8J-63" target="Pu-JDG_D6I3IjvPYyL8J-64">
          <mxGeometry relative="1" as="geometry">
            <Array as="points">
              <mxPoint x="1301" y="835" />
            </Array>
          </mxGeometry>
        </mxCell>
        <mxCell id="Pu-JDG_D6I3IjvPYyL8J-211" value="" style="curved=1;startArrow=none;endArrow=block;exitX=1;exitY=0.5;entryX=0.4;entryY=1;rounded=0;" edge="1" parent="WIyWlLk6GJQsqaUBKTNV-1" source="Pu-JDG_D6I3IjvPYyL8J-63" target="Pu-JDG_D6I3IjvPYyL8J-65">
          <mxGeometry relative="1" as="geometry">
            <Array as="points">
              <mxPoint x="1301" y="783" />
            </Array>
          </mxGeometry>
        </mxCell>
        <mxCell id="Pu-JDG_D6I3IjvPYyL8J-212" value="" style="curved=1;startArrow=none;endArrow=block;exitX=0.64;exitY=1;entryX=0.48;entryY=0;rounded=0;" edge="1" parent="WIyWlLk6GJQsqaUBKTNV-1" source="Pu-JDG_D6I3IjvPYyL8J-65" target="Pu-JDG_D6I3IjvPYyL8J-50">
          <mxGeometry relative="1" as="geometry">
            <Array as="points">
              <mxPoint x="1616" y="733" />
            </Array>
          </mxGeometry>
        </mxCell>
        <mxCell id="Pu-JDG_D6I3IjvPYyL8J-213" value="" style="curved=1;startArrow=none;endArrow=block;exitX=0.61;exitY=0;entryX=0.4;entryY=1;rounded=0;" edge="1" parent="WIyWlLk6GJQsqaUBKTNV-1" source="Pu-JDG_D6I3IjvPYyL8J-65" target="Pu-JDG_D6I3IjvPYyL8J-85">
          <mxGeometry relative="1" as="geometry">
            <Array as="points">
              <mxPoint x="1616" y="399" />
            </Array>
          </mxGeometry>
        </mxCell>
        <mxCell id="Pu-JDG_D6I3IjvPYyL8J-214" value="" style="curved=1;startArrow=none;endArrow=block;exitX=0.6;exitY=0;entryX=0.48;entryY=0;rounded=0;" edge="1" parent="WIyWlLk6GJQsqaUBKTNV-1" source="Pu-JDG_D6I3IjvPYyL8J-65" target="Pu-JDG_D6I3IjvPYyL8J-51">
          <mxGeometry relative="1" as="geometry">
            <Array as="points">
              <mxPoint x="1616" y="379" />
            </Array>
          </mxGeometry>
        </mxCell>
        <mxCell id="Pu-JDG_D6I3IjvPYyL8J-215" value="" style="curved=1;startArrow=none;endArrow=block;exitX=1;exitY=0.04;entryX=0;entryY=0.61;rounded=0;" edge="1" parent="WIyWlLk6GJQsqaUBKTNV-1" source="Pu-JDG_D6I3IjvPYyL8J-63" target="Pu-JDG_D6I3IjvPYyL8J-66">
          <mxGeometry relative="1" as="geometry">
            <Array as="points">
              <mxPoint x="1301" y="731" />
            </Array>
          </mxGeometry>
        </mxCell>
        <mxCell id="Pu-JDG_D6I3IjvPYyL8J-216" value="" style="curved=1;startArrow=none;endArrow=block;exitX=0.73;exitY=1;entryX=0;entryY=0.5;rounded=0;" edge="1" parent="WIyWlLk6GJQsqaUBKTNV-1" source="Pu-JDG_D6I3IjvPYyL8J-62" target="Pu-JDG_D6I3IjvPYyL8J-67">
          <mxGeometry relative="1" as="geometry">
            <Array as="points">
              <mxPoint x="924" y="669" />
            </Array>
          </mxGeometry>
        </mxCell>
        <mxCell id="Pu-JDG_D6I3IjvPYyL8J-217" value="" style="curved=1;startArrow=none;endArrow=block;exitX=1;exitY=0.92;entryX=0.48;entryY=0;rounded=0;" edge="1" parent="WIyWlLk6GJQsqaUBKTNV-1" source="Pu-JDG_D6I3IjvPYyL8J-67" target="Pu-JDG_D6I3IjvPYyL8J-36">
          <mxGeometry relative="1" as="geometry">
            <Array as="points">
              <mxPoint x="1301" y="711" />
            </Array>
          </mxGeometry>
        </mxCell>
        <mxCell id="Pu-JDG_D6I3IjvPYyL8J-218" value="" style="curved=1;startArrow=none;endArrow=block;exitX=1;exitY=0.5;entryX=0.26;entryY=1;rounded=0;" edge="1" parent="WIyWlLk6GJQsqaUBKTNV-1" source="Pu-JDG_D6I3IjvPYyL8J-67" target="Pu-JDG_D6I3IjvPYyL8J-65">
          <mxGeometry relative="1" as="geometry">
            <Array as="points">
              <mxPoint x="1301" y="669" />
            </Array>
          </mxGeometry>
        </mxCell>
        <mxCell id="Pu-JDG_D6I3IjvPYyL8J-219" value="" style="curved=1;startArrow=none;endArrow=block;exitX=1;exitY=0.08;entryX=0.33;entryY=1;rounded=0;" edge="1" parent="WIyWlLk6GJQsqaUBKTNV-1" source="Pu-JDG_D6I3IjvPYyL8J-67" target="Pu-JDG_D6I3IjvPYyL8J-68">
          <mxGeometry relative="1" as="geometry">
            <Array as="points">
              <mxPoint x="1301" y="627" />
            </Array>
          </mxGeometry>
        </mxCell>
        <mxCell id="Pu-JDG_D6I3IjvPYyL8J-220" value="" style="curved=1;startArrow=none;endArrow=block;exitX=1;exitY=0.41;entryX=0;entryY=0.5;rounded=0;" edge="1" parent="WIyWlLk6GJQsqaUBKTNV-1" source="Pu-JDG_D6I3IjvPYyL8J-62" target="Pu-JDG_D6I3IjvPYyL8J-69">
          <mxGeometry relative="1" as="geometry">
            <Array as="points">
              <mxPoint x="924" y="545" />
            </Array>
          </mxGeometry>
        </mxCell>
        <mxCell id="Pu-JDG_D6I3IjvPYyL8J-221" value="" style="curved=1;startArrow=none;endArrow=block;exitX=0.94;exitY=1;entryX=0.48;entryY=0;rounded=0;" edge="1" parent="WIyWlLk6GJQsqaUBKTNV-1" source="Pu-JDG_D6I3IjvPYyL8J-69" target="Pu-JDG_D6I3IjvPYyL8J-36">
          <mxGeometry relative="1" as="geometry">
            <Array as="points">
              <mxPoint x="1301" y="607" />
            </Array>
          </mxGeometry>
        </mxCell>
        <mxCell id="Pu-JDG_D6I3IjvPYyL8J-222" value="" style="curved=1;startArrow=none;endArrow=block;exitX=1;exitY=0.88;entryX=0;entryY=0.5;rounded=0;" edge="1" parent="WIyWlLk6GJQsqaUBKTNV-1" source="Pu-JDG_D6I3IjvPYyL8J-69" target="Pu-JDG_D6I3IjvPYyL8J-65">
          <mxGeometry relative="1" as="geometry">
            <Array as="points">
              <mxPoint x="1301" y="587" />
            </Array>
          </mxGeometry>
        </mxCell>
        <mxCell id="Pu-JDG_D6I3IjvPYyL8J-223" value="" style="curved=1;startArrow=none;endArrow=block;exitX=0.94;exitY=0;entryX=0;entryY=0.5;rounded=0;" edge="1" parent="WIyWlLk6GJQsqaUBKTNV-1" source="Pu-JDG_D6I3IjvPYyL8J-69" target="Pu-JDG_D6I3IjvPYyL8J-68">
          <mxGeometry relative="1" as="geometry">
            <Array as="points">
              <mxPoint x="1301" y="483" />
            </Array>
          </mxGeometry>
        </mxCell>
        <mxCell id="Pu-JDG_D6I3IjvPYyL8J-224" value="" style="curved=1;startArrow=none;endArrow=block;exitX=0.7;exitY=0;entryX=0;entryY=0.5;rounded=0;" edge="1" parent="WIyWlLk6GJQsqaUBKTNV-1" source="Pu-JDG_D6I3IjvPYyL8J-62" target="Pu-JDG_D6I3IjvPYyL8J-70">
          <mxGeometry relative="1" as="geometry">
            <Array as="points">
              <mxPoint x="924" y="421" />
            </Array>
          </mxGeometry>
        </mxCell>
        <mxCell id="Pu-JDG_D6I3IjvPYyL8J-225" value="" style="curved=1;startArrow=none;endArrow=block;exitX=1;exitY=0.92;entryX=0.48;entryY=0;rounded=0;" edge="1" parent="WIyWlLk6GJQsqaUBKTNV-1" source="Pu-JDG_D6I3IjvPYyL8J-70" target="Pu-JDG_D6I3IjvPYyL8J-36">
          <mxGeometry relative="1" as="geometry">
            <Array as="points">
              <mxPoint x="1301" y="463" />
            </Array>
          </mxGeometry>
        </mxCell>
        <mxCell id="Pu-JDG_D6I3IjvPYyL8J-226" value="" style="curved=1;startArrow=none;endArrow=block;exitX=1;exitY=0.5;entryX=0.38;entryY=0;rounded=0;" edge="1" parent="WIyWlLk6GJQsqaUBKTNV-1" source="Pu-JDG_D6I3IjvPYyL8J-70" target="Pu-JDG_D6I3IjvPYyL8J-65">
          <mxGeometry relative="1" as="geometry">
            <Array as="points">
              <mxPoint x="1301" y="421" />
            </Array>
          </mxGeometry>
        </mxCell>
        <mxCell id="Pu-JDG_D6I3IjvPYyL8J-227" value="" style="curved=1;startArrow=none;endArrow=block;exitX=1;exitY=0.08;entryX=0.26;entryY=0;rounded=0;" edge="1" parent="WIyWlLk6GJQsqaUBKTNV-1" source="Pu-JDG_D6I3IjvPYyL8J-70" target="Pu-JDG_D6I3IjvPYyL8J-68">
          <mxGeometry relative="1" as="geometry">
            <Array as="points">
              <mxPoint x="1301" y="379" />
            </Array>
          </mxGeometry>
        </mxCell>
        <mxCell id="Pu-JDG_D6I3IjvPYyL8J-228" value="" style="curved=1;startArrow=none;endArrow=block;exitX=0.61;exitY=0;entryX=0;entryY=0.5;rounded=0;" edge="1" parent="WIyWlLk6GJQsqaUBKTNV-1" source="Pu-JDG_D6I3IjvPYyL8J-62" target="Pu-JDG_D6I3IjvPYyL8J-71">
          <mxGeometry relative="1" as="geometry">
            <Array as="points">
              <mxPoint x="924" y="317" />
            </Array>
          </mxGeometry>
        </mxCell>
        <mxCell id="Pu-JDG_D6I3IjvPYyL8J-229" value="" style="curved=1;startArrow=none;endArrow=block;exitX=1;exitY=0.91;entryX=0.49;entryY=0;rounded=0;" edge="1" parent="WIyWlLk6GJQsqaUBKTNV-1" source="Pu-JDG_D6I3IjvPYyL8J-71" target="Pu-JDG_D6I3IjvPYyL8J-36">
          <mxGeometry relative="1" as="geometry">
            <Array as="points">
              <mxPoint x="1301" y="359" />
            </Array>
          </mxGeometry>
        </mxCell>
        <mxCell id="Pu-JDG_D6I3IjvPYyL8J-230" value="" style="curved=1;startArrow=none;endArrow=block;exitX=1;exitY=0.5;entryX=0.43;entryY=0;rounded=0;" edge="1" parent="WIyWlLk6GJQsqaUBKTNV-1" source="Pu-JDG_D6I3IjvPYyL8J-71" target="Pu-JDG_D6I3IjvPYyL8J-65">
          <mxGeometry relative="1" as="geometry">
            <Array as="points">
              <mxPoint x="1301" y="317" />
            </Array>
          </mxGeometry>
        </mxCell>
        <mxCell id="Pu-JDG_D6I3IjvPYyL8J-231" value="" style="curved=1;startArrow=none;endArrow=block;exitX=1;exitY=0.09;entryX=0.48;entryY=0;rounded=0;" edge="1" parent="WIyWlLk6GJQsqaUBKTNV-1" source="Pu-JDG_D6I3IjvPYyL8J-71" target="Pu-JDG_D6I3IjvPYyL8J-37">
          <mxGeometry relative="1" as="geometry">
            <Array as="points">
              <mxPoint x="1301" y="275" />
            </Array>
          </mxGeometry>
        </mxCell>
        <mxCell id="Pu-JDG_D6I3IjvPYyL8J-232" value="" style="curved=1;startArrow=none;endArrow=block;exitX=1;exitY=0.5;entryX=0;entryY=0.5;rounded=0;" edge="1" parent="WIyWlLk6GJQsqaUBKTNV-1" source="Pu-JDG_D6I3IjvPYyL8J-1" target="Pu-JDG_D6I3IjvPYyL8J-57">
          <mxGeometry relative="1" as="geometry">
            <Array as="points" />
          </mxGeometry>
        </mxCell>
        <mxCell id="Pu-JDG_D6I3IjvPYyL8J-233" value="" style="curved=1;startArrow=none;endArrow=block;exitX=1;exitY=0.5;entryX=0;entryY=0.5;rounded=0;" edge="1" parent="WIyWlLk6GJQsqaUBKTNV-1" source="Pu-JDG_D6I3IjvPYyL8J-57" target="Pu-JDG_D6I3IjvPYyL8J-58">
          <mxGeometry relative="1" as="geometry">
            <Array as="points" />
          </mxGeometry>
        </mxCell>
        <mxCell id="Pu-JDG_D6I3IjvPYyL8J-234" value="" style="curved=1;startArrow=none;endArrow=block;exitX=0.81;exitY=1;entryX=0;entryY=0.5;rounded=0;" edge="1" parent="WIyWlLk6GJQsqaUBKTNV-1" source="Pu-JDG_D6I3IjvPYyL8J-58" target="Pu-JDG_D6I3IjvPYyL8J-59">
          <mxGeometry relative="1" as="geometry">
            <Array as="points">
              <mxPoint x="1301" y="255" />
            </Array>
          </mxGeometry>
        </mxCell>
        <mxCell id="Pu-JDG_D6I3IjvPYyL8J-235" value="" style="curved=1;startArrow=none;endArrow=block;exitX=1;exitY=0.5;entryX=0;entryY=0.5;rounded=0;" edge="1" parent="WIyWlLk6GJQsqaUBKTNV-1" source="Pu-JDG_D6I3IjvPYyL8J-58" target="Pu-JDG_D6I3IjvPYyL8J-60">
          <mxGeometry relative="1" as="geometry">
            <Array as="points" />
          </mxGeometry>
        </mxCell>
        <mxCell id="Pu-JDG_D6I3IjvPYyL8J-236" value="" style="curved=1;startArrow=none;endArrow=block;exitX=0.59;exitY=1;entryX=0.49;entryY=0;rounded=0;" edge="1" parent="WIyWlLk6GJQsqaUBKTNV-1" source="Pu-JDG_D6I3IjvPYyL8J-60" target="Pu-JDG_D6I3IjvPYyL8J-50">
          <mxGeometry relative="1" as="geometry">
            <Array as="points">
              <mxPoint x="1616" y="359" />
            </Array>
          </mxGeometry>
        </mxCell>
        <mxCell id="Pu-JDG_D6I3IjvPYyL8J-237" value="" style="curved=1;startArrow=none;endArrow=block;exitX=1;exitY=0.37;entryX=0;entryY=0.18;rounded=0;" edge="1" parent="WIyWlLk6GJQsqaUBKTNV-1" source="Pu-JDG_D6I3IjvPYyL8J-60" target="Pu-JDG_D6I3IjvPYyL8J-85">
          <mxGeometry relative="1" as="geometry">
            <Array as="points">
              <mxPoint x="1616" y="141" />
            </Array>
          </mxGeometry>
        </mxCell>
        <mxCell id="Pu-JDG_D6I3IjvPYyL8J-238" value="" style="curved=1;startArrow=none;endArrow=block;exitX=0.81;exitY=0;entryX=0;entryY=0.5;rounded=0;" edge="1" parent="WIyWlLk6GJQsqaUBKTNV-1" source="Pu-JDG_D6I3IjvPYyL8J-58" target="Pu-JDG_D6I3IjvPYyL8J-61">
          <mxGeometry relative="1" as="geometry">
            <Array as="points">
              <mxPoint x="1301" y="47" />
            </Array>
          </mxGeometry>
        </mxCell>
        <mxCell id="Pu-JDG_D6I3IjvPYyL8J-239" value="" style="curved=1;startArrow=none;endArrow=block;exitX=1;exitY=0.5;entryX=0;entryY=0.5;rounded=0;" edge="1" parent="WIyWlLk6GJQsqaUBKTNV-1" source="Pu-JDG_D6I3IjvPYyL8J-2" target="Pu-JDG_D6I3IjvPYyL8J-72">
          <mxGeometry relative="1" as="geometry">
            <Array as="points" />
          </mxGeometry>
        </mxCell>
        <mxCell id="Pu-JDG_D6I3IjvPYyL8J-240" value="" style="curved=1;startArrow=none;endArrow=block;exitX=1;exitY=0.5;entryX=0;entryY=0.5;rounded=0;" edge="1" parent="WIyWlLk6GJQsqaUBKTNV-1" source="Pu-JDG_D6I3IjvPYyL8J-72" target="Pu-JDG_D6I3IjvPYyL8J-74">
          <mxGeometry relative="1" as="geometry">
            <Array as="points" />
          </mxGeometry>
        </mxCell>
        <mxCell id="Pu-JDG_D6I3IjvPYyL8J-241" value="" style="curved=1;startArrow=none;endArrow=block;exitX=0.56;exitY=0;entryX=0;entryY=0.5;rounded=0;" edge="1" parent="WIyWlLk6GJQsqaUBKTNV-1" source="Pu-JDG_D6I3IjvPYyL8J-72" target="Pu-JDG_D6I3IjvPYyL8J-73">
          <mxGeometry relative="1" as="geometry">
            <Array as="points">
              <mxPoint x="580" y="3791" />
            </Array>
          </mxGeometry>
        </mxCell>
        <mxCell id="Pu-JDG_D6I3IjvPYyL8J-242" value="" style="curved=1;startArrow=none;endArrow=block;exitX=0.87;exitY=1;entryX=0;entryY=0.5;rounded=0;" edge="1" parent="WIyWlLk6GJQsqaUBKTNV-1" source="Pu-JDG_D6I3IjvPYyL8J-74" target="Pu-JDG_D6I3IjvPYyL8J-75">
          <mxGeometry relative="1" as="geometry">
            <Array as="points">
              <mxPoint x="924" y="4207" />
            </Array>
          </mxGeometry>
        </mxCell>
        <mxCell id="Pu-JDG_D6I3IjvPYyL8J-243" value="" style="curved=1;startArrow=none;endArrow=block;exitX=0.87;exitY=0;entryX=0;entryY=0.5;rounded=0;" edge="1" parent="WIyWlLk6GJQsqaUBKTNV-1" source="Pu-JDG_D6I3IjvPYyL8J-74" target="Pu-JDG_D6I3IjvPYyL8J-76">
          <mxGeometry relative="1" as="geometry">
            <Array as="points">
              <mxPoint x="924" y="4103" />
            </Array>
          </mxGeometry>
        </mxCell>
        <mxCell id="Pu-JDG_D6I3IjvPYyL8J-244" value="" style="curved=1;startArrow=none;endArrow=block;exitX=0.76;exitY=1;entryX=0;entryY=0.5;rounded=0;" edge="1" parent="WIyWlLk6GJQsqaUBKTNV-1" source="Pu-JDG_D6I3IjvPYyL8J-76" target="Pu-JDG_D6I3IjvPYyL8J-81">
          <mxGeometry relative="1" as="geometry">
            <Array as="points">
              <mxPoint x="1301" y="4207" />
            </Array>
          </mxGeometry>
        </mxCell>
        <mxCell id="Pu-JDG_D6I3IjvPYyL8J-245" value="" style="curved=1;startArrow=none;endArrow=block;exitX=1;exitY=0.5;entryX=0;entryY=0.5;rounded=0;" edge="1" parent="WIyWlLk6GJQsqaUBKTNV-1" source="Pu-JDG_D6I3IjvPYyL8J-76" target="Pu-JDG_D6I3IjvPYyL8J-80">
          <mxGeometry relative="1" as="geometry">
            <Array as="points" />
          </mxGeometry>
        </mxCell>
        <mxCell id="Pu-JDG_D6I3IjvPYyL8J-246" value="" style="curved=1;startArrow=none;endArrow=block;exitX=0.76;exitY=0;entryX=0;entryY=0.5;rounded=0;" edge="1" parent="WIyWlLk6GJQsqaUBKTNV-1" source="Pu-JDG_D6I3IjvPYyL8J-76" target="Pu-JDG_D6I3IjvPYyL8J-79">
          <mxGeometry relative="1" as="geometry">
            <Array as="points">
              <mxPoint x="1301" y="3999" />
            </Array>
          </mxGeometry>
        </mxCell>
        <mxCell id="Pu-JDG_D6I3IjvPYyL8J-247" value="" style="curved=1;startArrow=none;endArrow=block;exitX=0.63;exitY=0;entryX=0;entryY=0.5;rounded=0;" edge="1" parent="WIyWlLk6GJQsqaUBKTNV-1" source="Pu-JDG_D6I3IjvPYyL8J-76" target="Pu-JDG_D6I3IjvPYyL8J-78">
          <mxGeometry relative="1" as="geometry">
            <Array as="points">
              <mxPoint x="1301" y="3895" />
            </Array>
          </mxGeometry>
        </mxCell>
        <mxCell id="Pu-JDG_D6I3IjvPYyL8J-248" value="" style="curved=1;startArrow=none;endArrow=block;exitX=0.62;exitY=1;entryX=0;entryY=0.5;rounded=0;" edge="1" parent="WIyWlLk6GJQsqaUBKTNV-1" source="Pu-JDG_D6I3IjvPYyL8J-78" target="Pu-JDG_D6I3IjvPYyL8J-82">
          <mxGeometry relative="1" as="geometry">
            <Array as="points">
              <mxPoint x="1616" y="4051" />
            </Array>
          </mxGeometry>
        </mxCell>
        <mxCell id="Pu-JDG_D6I3IjvPYyL8J-249" value="" style="curved=1;startArrow=none;endArrow=block;exitX=0.85;exitY=1;entryX=0;entryY=0.5;rounded=0;" edge="1" parent="WIyWlLk6GJQsqaUBKTNV-1" source="Pu-JDG_D6I3IjvPYyL8J-78" target="Pu-JDG_D6I3IjvPYyL8J-83">
          <mxGeometry relative="1" as="geometry">
            <Array as="points">
              <mxPoint x="1616" y="3947" />
            </Array>
          </mxGeometry>
        </mxCell>
        <mxCell id="Pu-JDG_D6I3IjvPYyL8J-250" value="" style="curved=1;startArrow=none;endArrow=block;exitX=0.85;exitY=0;entryX=0;entryY=0.5;rounded=0;" edge="1" parent="WIyWlLk6GJQsqaUBKTNV-1" source="Pu-JDG_D6I3IjvPYyL8J-78" target="Pu-JDG_D6I3IjvPYyL8J-84">
          <mxGeometry relative="1" as="geometry">
            <Array as="points">
              <mxPoint x="1616" y="3843" />
            </Array>
          </mxGeometry>
        </mxCell>
        <mxCell id="Pu-JDG_D6I3IjvPYyL8J-251" value="" style="curved=1;startArrow=none;endArrow=block;exitX=0.58;exitY=0;entryX=0.33;entryY=1;rounded=0;" edge="1" parent="WIyWlLk6GJQsqaUBKTNV-1" source="Pu-JDG_D6I3IjvPYyL8J-74" target="Pu-JDG_D6I3IjvPYyL8J-77">
          <mxGeometry relative="1" as="geometry">
            <Array as="points">
              <mxPoint x="924" y="3915" />
            </Array>
          </mxGeometry>
        </mxCell>
        <mxCell id="Pu-JDG_D6I3IjvPYyL8J-252" value="" style="curved=1;startArrow=none;endArrow=block;exitX=0.68;exitY=1;entryX=0.43;entryY=0;rounded=0;" edge="1" parent="WIyWlLk6GJQsqaUBKTNV-1" source="Pu-JDG_D6I3IjvPYyL8J-73" target="Pu-JDG_D6I3IjvPYyL8J-75">
          <mxGeometry relative="1" as="geometry">
            <Array as="points">
              <mxPoint x="924" y="3895" />
            </Array>
          </mxGeometry>
        </mxCell>
        <mxCell id="Pu-JDG_D6I3IjvPYyL8J-253" value="" style="curved=1;startArrow=none;endArrow=block;exitX=1;exitY=0.78;entryX=0.41;entryY=0;rounded=0;" edge="1" parent="WIyWlLk6GJQsqaUBKTNV-1" source="Pu-JDG_D6I3IjvPYyL8J-73" target="Pu-JDG_D6I3IjvPYyL8J-76">
          <mxGeometry relative="1" as="geometry">
            <Array as="points">
              <mxPoint x="924" y="3811" />
            </Array>
          </mxGeometry>
        </mxCell>
        <mxCell id="Pu-JDG_D6I3IjvPYyL8J-254" value="" style="curved=1;startArrow=none;endArrow=block;exitX=0.93;exitY=0;entryX=0.12;entryY=0;rounded=0;" edge="1" parent="WIyWlLk6GJQsqaUBKTNV-1" source="Pu-JDG_D6I3IjvPYyL8J-73" target="Pu-JDG_D6I3IjvPYyL8J-77">
          <mxGeometry relative="1" as="geometry">
            <Array as="points">
              <mxPoint x="924" y="3749" />
            </Array>
          </mxGeometry>
        </mxCell>
      </root>
    </mxGraphModel>
  </diagram>
</mxfile>
